<?xml version="1.0" encoding="UTF-8" standalone="no"?><svg xmlns="http://www.w3.org/2000/svg" xmlns:xlink="http://www.w3.org/1999/xlink" contentStyleType="text/css" height="571px" preserveAspectRatio="none" style="width:910px;height:571px;background:#FFFFFF;" version="1.1" viewBox="0 0 910 571" width="910px" zoomAndPan="magnify"><defs/><g><rect fill="#FFFFFF" height="410.4646" style="stroke:#181818;stroke-width:1.0;" width="10" x="132.5" y="83.1184"/><rect fill="#FFFFFF" height="364.6181" style="stroke:#181818;stroke-width:1.0;" width="10" x="137.5" y="128.9648"/><rect fill="#FFFFFF" height="318.7717" style="stroke:#181818;stroke-width:1.0;" width="10" x="142.5" y="174.8113"/><rect fill="#FFFFFF" height="280.9252" style="stroke:#181818;stroke-width:1.0;" width="10" x="426.5" y="212.6577"/><rect fill="#FFFFFF" height="207.2323" style="stroke:#181818;stroke-width:1.0;" width="10" x="431.5" y="253.5042"/><rect fill="#FFFFFF" height="169.3858" style="stroke:#181818;stroke-width:1.0;" width="10" x="658.5" y="291.3507"/><rect fill="#FFFFFF" height="95.6929" style="stroke:#181818;stroke-width:1.0;" width="10" x="663.5" y="332.1971"/><rect fill="#FFFFFF" height="49.8465" style="stroke:#181818;stroke-width:1.0;" width="10" x="668.5" y="378.0436"/><rect fill="#FFFFFF" height="12" style="stroke:#181818;stroke-width:1.0;" width="10" x="864.5" y="415.89"/><line style="stroke:#181818;stroke-width:0.5;stroke-dasharray:5.0,5.0;" x1="137" x2="137" y1="40.2719" y2="532.4294"/><line style="stroke:#181818;stroke-width:0.5;stroke-dasharray:5.0,5.0;" x1="431.5" x2="431.5" y1="40.2719" y2="532.4294"/><line style="stroke:#181818;stroke-width:0.5;stroke-dasharray:5.0,5.0;" x1="663" x2="663" y1="40.2719" y2="532.4294"/><line style="stroke:#181818;stroke-width:0.5;stroke-dasharray:5.0,5.0;" x1="869.5" x2="869.5" y1="40.2719" y2="532.4294"/><rect fill="#E2E2F0" height="34.2719" rx="2.5" ry="2.5" style="stroke:#181818;stroke-width:0.5;" width="265" x="5" y="5"/><text fill="#000000" font-family="sans-serif" font-size="14" lengthAdjust="spacing" textLength="251" x="12" y="28.2399">AbstractAutowireCapableBeanFactory</text><rect fill="#E2E2F0" height="34.2719" rx="2.5" ry="2.5" style="stroke:#181818;stroke-width:0.5;" width="265" x="5" y="531.4294"/><text fill="#000000" font-family="sans-serif" font-size="14" lengthAdjust="spacing" textLength="251" x="12" y="554.6693">AbstractAutowireCapableBeanFactory</text><rect fill="#E2E2F0" height="34.2719" rx="2.5" ry="2.5" style="stroke:#181818;stroke-width:0.5;" width="184" x="339.5" y="5"/><text fill="#000000" font-family="sans-serif" font-size="14" lengthAdjust="spacing" textLength="170" x="346.5" y="28.2399">AbstractAutoProxyCreator</text><rect fill="#E2E2F0" height="34.2719" rx="2.5" ry="2.5" style="stroke:#181818;stroke-width:0.5;" width="184" x="339.5" y="531.4294"/><text fill="#000000" font-family="sans-serif" font-size="14" lengthAdjust="spacing" textLength="170" x="346.5" y="554.6693">AbstractAutoProxyCreator</text><rect fill="#E2E2F0" height="34.2719" rx="2.5" ry="2.5" style="stroke:#181818;stroke-width:0.5;" width="233" x="547" y="5"/><text fill="#000000" font-family="sans-serif" font-size="14" lengthAdjust="spacing" textLength="219" x="554" y="28.2399">AbstractAdvisorAutoProxyCreator</text><rect fill="#E2E2F0" height="34.2719" rx="2.5" ry="2.5" style="stroke:#181818;stroke-width:0.5;" width="233" x="547" y="531.4294"/><text fill="#000000" font-family="sans-serif" font-size="14" lengthAdjust="spacing" textLength="219" x="554" y="554.6693">AbstractAdvisorAutoProxyCreator</text><rect fill="#E2E2F0" height="34.2719" rx="2.5" ry="2.5" style="stroke:#181818;stroke-width:0.5;" width="70" x="834.5" y="5"/><text fill="#000000" font-family="sans-serif" font-size="14" lengthAdjust="spacing" textLength="56" x="841.5" y="28.2399">AopUtils</text><rect fill="#E2E2F0" height="34.2719" rx="2.5" ry="2.5" style="stroke:#181818;stroke-width:0.5;" width="70" x="834.5" y="531.4294"/><text fill="#000000" font-family="sans-serif" font-size="14" lengthAdjust="spacing" textLength="56" x="841.5" y="554.6693">AopUtils</text><rect fill="#FFFFFF" height="410.4646" style="stroke:#181818;stroke-width:1.0;" width="10" x="132.5" y="83.1184"/><rect fill="#FFFFFF" height="364.6181" style="stroke:#181818;stroke-width:1.0;" width="10" x="137.5" y="128.9648"/><rect fill="#FFFFFF" height="318.7717" style="stroke:#181818;stroke-width:1.0;" width="10" x="142.5" y="174.8113"/><rect fill="#FFFFFF" height="280.9252" style="stroke:#181818;stroke-width:1.0;" width="10" x="426.5" y="212.6577"/><rect fill="#FFFFFF" height="207.2323" style="stroke:#181818;stroke-width:1.0;" width="10" x="431.5" y="253.5042"/><rect fill="#FFFFFF" height="169.3858" style="stroke:#181818;stroke-width:1.0;" width="10" x="658.5" y="291.3507"/><rect fill="#FFFFFF" height="95.6929" style="stroke:#181818;stroke-width:1.0;" width="10" x="663.5" y="332.1971"/><rect fill="#FFFFFF" height="49.8465" style="stroke:#181818;stroke-width:1.0;" width="10" x="668.5" y="378.0436"/><rect fill="#FFFFFF" height="12" style="stroke:#181818;stroke-width:1.0;" width="10" x="864.5" y="415.89"/><line style="stroke:#181818;stroke-width:1.0;" x1="137.5" x2="184.5" y1="70.1184" y2="70.1184"/><line style="stroke:#181818;stroke-width:1.0;" x1="184.5" x2="184.5" y1="70.1184" y2="83.1184"/><line style="stroke:#181818;stroke-width:1.0;" x1="143.5" x2="184.5" y1="83.1184" y2="83.1184"/><polygon fill="#181818" points="153.5,79.1184,143.5,83.1184,153.5,87.1184,149.5,83.1184" style="stroke:#181818;stroke-width:1.0;"/><text fill="#000000" font-family="sans-serif" font-size="13" lengthAdjust="spacing" textLength="86" x="149.5" y="64.3699">doCreateBean</text><line style="stroke:#181818;stroke-width:1.0;" x1="142.5" x2="189.5" y1="115.9648" y2="115.9648"/><line style="stroke:#181818;stroke-width:1.0;" x1="189.5" x2="189.5" y1="115.9648" y2="128.9648"/><line style="stroke:#181818;stroke-width:1.0;" x1="148.5" x2="189.5" y1="128.9648" y2="128.9648"/><polygon fill="#181818" points="158.5,124.9648,148.5,128.9648,158.5,132.9648,154.5,128.9648" style="stroke:#181818;stroke-width:1.0;"/><text fill="#000000" font-family="sans-serif" font-size="13" lengthAdjust="spacing" textLength="84" x="154.5" y="110.2164">initializeBean</text><line style="stroke:#181818;stroke-width:1.0;" x1="147.5" x2="194.5" y1="161.8113" y2="161.8113"/><line style="stroke:#181818;stroke-width:1.0;" x1="194.5" x2="194.5" y1="161.8113" y2="174.8113"/><line style="stroke:#181818;stroke-width:1.0;" x1="153.5" x2="194.5" y1="174.8113" y2="174.8113"/><polygon fill="#181818" points="163.5,170.8113,153.5,174.8113,163.5,178.8113,159.5,174.8113" style="stroke:#181818;stroke-width:1.0;"/><text fill="#000000" font-family="sans-serif" font-size="13" lengthAdjust="spacing" textLength="265" x="159.5" y="156.0628">applyBeanPostProcessorsAfterInitialization</text><polygon fill="#181818" points="414.5,208.6577,424.5,212.6577,414.5,216.6577,418.5,212.6577" style="stroke:#181818;stroke-width:1.0;"/><line style="stroke:#181818;stroke-width:1.0;" x1="152.5" x2="420.5" y1="212.6577" y2="212.6577"/><text fill="#000000" font-family="sans-serif" font-size="13" lengthAdjust="spacing" textLength="181" x="159.5" y="206.9093">postProcessAfterInitialization</text><line style="stroke:#181818;stroke-width:1.0;" x1="436.5" x2="483.5" y1="240.5042" y2="240.5042"/><line style="stroke:#181818;stroke-width:1.0;" x1="483.5" x2="483.5" y1="240.5042" y2="253.5042"/><line style="stroke:#181818;stroke-width:1.0;" x1="442.5" x2="483.5" y1="253.5042" y2="253.5042"/><polygon fill="#181818" points="452.5,249.5042,442.5,253.5042,452.5,257.5042,448.5,253.5042" style="stroke:#181818;stroke-width:1.0;"/><text fill="#000000" font-family="sans-serif" font-size="13" lengthAdjust="spacing" textLength="99" x="448.5" y="234.7557">wrapIfNecessary</text><polygon fill="#181818" points="646.5,287.3507,656.5,291.3507,646.5,295.3507,650.5,291.3507" style="stroke:#181818;stroke-width:1.0;"/><line style="stroke:#181818;stroke-width:1.0;" x1="441.5" x2="652.5" y1="291.3507" y2="291.3507"/><text fill="#000000" font-family="sans-serif" font-size="13" lengthAdjust="spacing" textLength="193" x="448.5" y="285.6022">getAdvicesAndAdvisorsForBean</text><line style="stroke:#181818;stroke-width:1.0;" x1="668.5" x2="715.5" y1="319.1971" y2="319.1971"/><line style="stroke:#181818;stroke-width:1.0;" x1="715.5" x2="715.5" y1="319.1971" y2="332.1971"/><line style="stroke:#181818;stroke-width:1.0;" x1="674.5" x2="715.5" y1="332.1971" y2="332.1971"/><polygon fill="#181818" points="684.5,328.1971,674.5,332.1971,684.5,336.1971,680.5,332.1971" style="stroke:#181818;stroke-width:1.0;"/><text fill="#000000" font-family="sans-serif" font-size="13" lengthAdjust="spacing" textLength="122" x="680.5" y="313.4486">findEligibleAdvisors</text><line style="stroke:#181818;stroke-width:1.0;" x1="673.5" x2="720.5" y1="365.0436" y2="365.0436"/><line style="stroke:#181818;stroke-width:1.0;" x1="720.5" x2="720.5" y1="365.0436" y2="378.0436"/><line style="stroke:#181818;stroke-width:1.0;" x1="679.5" x2="720.5" y1="378.0436" y2="378.0436"/><polygon fill="#181818" points="689.5,374.0436,679.5,378.0436,689.5,382.0436,685.5,378.0436" style="stroke:#181818;stroke-width:1.0;"/><text fill="#000000" font-family="sans-serif" font-size="13" lengthAdjust="spacing" textLength="162" x="685.5" y="359.2951">findAdvisorsThatCanApply</text><polygon fill="#181818" points="852.5,411.89,862.5,415.89,852.5,419.89,856.5,415.89" style="stroke:#181818;stroke-width:1.0;"/><line style="stroke:#181818;stroke-width:1.0;" x1="678.5" x2="858.5" y1="415.89" y2="415.89"/><text fill="#000000" font-family="sans-serif" font-size="13" lengthAdjust="spacing" textLength="162" x="685.5" y="410.1416">findAdvisorsThatCanApply</text><polygon fill="#181818" points="679.5,423.89,669.5,427.89,679.5,431.89,675.5,427.89" style="stroke:#181818;stroke-width:1.0;"/><line style="stroke:#181818;stroke-width:1.0;stroke-dasharray:2.0,2.0;" x1="673.5" x2="868.5" y1="427.89" y2="427.89"/><text fill="#000000" font-family="sans-serif" font-size="13" lengthAdjust="spacing" textLength="162" x="685.5" y="443.988">findAdvisorsThatCanApply</text><polygon fill="#181818" points="447.5,456.7365,437.5,460.7365,447.5,464.7365,443.5,460.7365" style="stroke:#181818;stroke-width:1.0;"/><line style="stroke:#181818;stroke-width:1.0;stroke-dasharray:2.0,2.0;" x1="441.5" x2="662.5" y1="460.7365" y2="460.7365"/><text fill="#000000" font-family="sans-serif" font-size="13" lengthAdjust="spacing" textLength="193" x="453.5" y="476.8345">getAdvicesAndAdvisorsForBean</text><polygon fill="#181818" points="148.5,489.5829,138.5,493.5829,148.5,497.5829,144.5,493.5829" style="stroke:#181818;stroke-width:1.0;"/><line style="stroke:#181818;stroke-width:1.0;stroke-dasharray:2.0,2.0;" x1="142.5" x2="430.5" y1="493.5829" y2="493.5829"/><text fill="#000000" font-family="sans-serif" font-size="13" lengthAdjust="spacing" textLength="181" x="154.5" y="509.6809">postProcessAfterInitialization</text><!--MD5=[ce83adad4f5842228a11e7be918e6ddd]
@startuml
skinparam responseMessageBelowArrow true
AbstractAutowireCapableBeanFactory -> AbstractAutowireCapableBeanFactory: doCreateBean
activate AbstractAutowireCapableBeanFactory
AbstractAutowireCapableBeanFactory -> AbstractAutowireCapableBeanFactory: initializeBean
activate AbstractAutowireCapableBeanFactory
AbstractAutowireCapableBeanFactory -> AbstractAutowireCapableBeanFactory: applyBeanPostProcessorsAfterInitialization
activate AbstractAutowireCapableBeanFactory
AbstractAutowireCapableBeanFactory -> AbstractAutoProxyCreator: postProcessAfterInitialization
activate AbstractAutoProxyCreator
AbstractAutoProxyCreator -> AbstractAutoProxyCreator: wrapIfNecessary
activate AbstractAutoProxyCreator
AbstractAutoProxyCreator -> AbstractAdvisorAutoProxyCreator: getAdvicesAndAdvisorsForBean
activate AbstractAdvisorAutoProxyCreator
AbstractAdvisorAutoProxyCreator -> AbstractAdvisorAutoProxyCreator: findEligibleAdvisors
activate AbstractAdvisorAutoProxyCreator
AbstractAdvisorAutoProxyCreator -> AbstractAdvisorAutoProxyCreator: findAdvisorsThatCanApply
activate AbstractAdvisorAutoProxyCreator
AbstractAdvisorAutoProxyCreator -> AopUtils: findAdvisorsThatCanApply
activate AopUtils
AopUtils - -> AbstractAdvisorAutoProxyCreator: findAdvisorsThatCanApply
deactivate AopUtils
deactivate AbstractAdvisorAutoProxyCreator
deactivate AbstractAdvisorAutoProxyCreator
AbstractAdvisorAutoProxyCreator - -> AbstractAutoProxyCreator: getAdvicesAndAdvisorsForBean
deactivate AbstractAdvisorAutoProxyCreator
deactivate AbstractAutoProxyCreator
AbstractAutoProxyCreator - -> AbstractAutowireCapableBeanFactory: postProcessAfterInitialization
deactivate AbstractAutoProxyCreator
deactivate AbstractAutowireCapableBeanFactory
deactivate AbstractAutowireCapableBeanFactory
deactivate AbstractAutowireCapableBeanFactory
@enduml

PlantUML version 1.2022.13(Sat Nov 19 21:22:17 CST 2022)
(GPL source distribution)
Java Runtime: OpenJDK Runtime Environment
JVM: OpenJDK 64-Bit Server VM
Default Encoding: UTF-8
Language: zh
Country: CN
--></g></svg>