<?xml version="1.0" encoding="UTF-8" standalone="no"?><svg xmlns="http://www.w3.org/2000/svg" xmlns:xlink="http://www.w3.org/1999/xlink" contentStyleType="text/css" height="637px" preserveAspectRatio="none" style="width:1008px;height:637px;background:#FFFFFF;" version="1.1" viewBox="0 0 1008 637" width="1008px" zoomAndPan="magnify"><defs/><g><rect fill="#FFFFFF" height="476.1575" style="stroke:#181818;stroke-width:1.0;" width="10" x="132.5" y="83.1184"/><rect fill="#FFFFFF" height="430.311" style="stroke:#181818;stroke-width:1.0;" width="10" x="137.5" y="128.9648"/><rect fill="#FFFFFF" height="384.4646" style="stroke:#181818;stroke-width:1.0;" width="10" x="142.5" y="174.8113"/><rect fill="#FFFFFF" height="338.6181" style="stroke:#181818;stroke-width:1.0;" width="10" x="147.5" y="220.6577"/><rect fill="#FFFFFF" height="300.7717" style="stroke:#181818;stroke-width:1.0;" width="10" x="431.5" y="258.5042"/><rect fill="#FFFFFF" height="227.0787" style="stroke:#181818;stroke-width:1.0;" width="10" x="436.5" y="299.3507"/><rect fill="#FFFFFF" height="181.2323" style="stroke:#181818;stroke-width:1.0;" width="10" x="441.5" y="345.1971"/><rect fill="#FFFFFF" height="143.3858" style="stroke:#181818;stroke-width:1.0;" width="10" x="582.5" y="383.0436"/><rect fill="#FFFFFF" height="77.6929" style="stroke:#181818;stroke-width:1.0;" width="10" x="696.5" y="415.89"/><rect fill="#FFFFFF" height="12" style="stroke:#181818;stroke-width:1.0;" width="10" x="909.5" y="448.7365"/><line style="stroke:#181818;stroke-width:0.5;stroke-dasharray:5.0,5.0;" x1="137" x2="137" y1="40.2719" y2="598.1223"/><line style="stroke:#181818;stroke-width:0.5;stroke-dasharray:5.0,5.0;" x1="436.5" x2="436.5" y1="40.2719" y2="598.1223"/><line style="stroke:#181818;stroke-width:0.5;stroke-dasharray:5.0,5.0;" x1="587.5" x2="587.5" y1="40.2719" y2="598.1223"/><line style="stroke:#181818;stroke-width:0.5;stroke-dasharray:5.0,5.0;" x1="701.5" x2="701.5" y1="40.2719" y2="598.1223"/><line style="stroke:#181818;stroke-width:0.5;stroke-dasharray:5.0,5.0;" x1="914.5" x2="914.5" y1="40.2719" y2="598.1223"/><rect fill="#E2E2F0" height="34.2719" rx="2.5" ry="2.5" style="stroke:#181818;stroke-width:0.5;" width="265" x="5" y="5"/><text fill="#000000" font-family="sans-serif" font-size="14" lengthAdjust="spacing" textLength="251" x="12" y="28.2399">AbstractAutowireCapableBeanFactory</text><rect fill="#E2E2F0" height="34.2719" rx="2.5" ry="2.5" style="stroke:#181818;stroke-width:0.5;" width="265" x="5" y="597.1223"/><text fill="#000000" font-family="sans-serif" font-size="14" lengthAdjust="spacing" textLength="251" x="12" y="620.3622">AbstractAutowireCapableBeanFactory</text><rect fill="#E2E2F0" height="34.2719" rx="2.5" ry="2.5" style="stroke:#181818;stroke-width:0.5;" width="184" x="344.5" y="5"/><text fill="#000000" font-family="sans-serif" font-size="14" lengthAdjust="spacing" textLength="170" x="351.5" y="28.2399">AbstractAutoProxyCreator</text><rect fill="#E2E2F0" height="34.2719" rx="2.5" ry="2.5" style="stroke:#181818;stroke-width:0.5;" width="184" x="344.5" y="597.1223"/><text fill="#000000" font-family="sans-serif" font-size="14" lengthAdjust="spacing" textLength="170" x="351.5" y="620.3622">AbstractAutoProxyCreator</text><rect fill="#E2E2F0" height="34.2719" rx="2.5" ry="2.5" style="stroke:#181818;stroke-width:0.5;" width="98" x="538.5" y="5"/><text fill="#000000" font-family="sans-serif" font-size="14" lengthAdjust="spacing" textLength="84" x="545.5" y="28.2399">ProxyFactory</text><rect fill="#E2E2F0" height="34.2719" rx="2.5" ry="2.5" style="stroke:#181818;stroke-width:0.5;" width="98" x="538.5" y="597.1223"/><text fill="#000000" font-family="sans-serif" font-size="14" lengthAdjust="spacing" textLength="84" x="545.5" y="620.3622">ProxyFactory</text><rect fill="#E2E2F0" height="34.2719" rx="2.5" ry="2.5" style="stroke:#181818;stroke-width:0.5;" width="110" x="646.5" y="5"/><text fill="#000000" font-family="sans-serif" font-size="14" lengthAdjust="spacing" textLength="96" x="653.5" y="28.2399">CglibAopProxy</text><rect fill="#E2E2F0" height="34.2719" rx="2.5" ry="2.5" style="stroke:#181818;stroke-width:0.5;" width="110" x="646.5" y="597.1223"/><text fill="#000000" font-family="sans-serif" font-size="14" lengthAdjust="spacing" textLength="96" x="653.5" y="620.3622">CglibAopProxy</text><rect fill="#E2E2F0" height="34.2719" rx="2.5" ry="2.5" style="stroke:#181818;stroke-width:0.5;" width="176" x="826.5" y="5"/><text fill="#000000" font-family="sans-serif" font-size="14" lengthAdjust="spacing" textLength="162" x="833.5" y="28.2399">ObjenesisCglibAopProxy</text><rect fill="#E2E2F0" height="34.2719" rx="2.5" ry="2.5" style="stroke:#181818;stroke-width:0.5;" width="176" x="826.5" y="597.1223"/><text fill="#000000" font-family="sans-serif" font-size="14" lengthAdjust="spacing" textLength="162" x="833.5" y="620.3622">ObjenesisCglibAopProxy</text><rect fill="#FFFFFF" height="476.1575" style="stroke:#181818;stroke-width:1.0;" width="10" x="132.5" y="83.1184"/><rect fill="#FFFFFF" height="430.311" style="stroke:#181818;stroke-width:1.0;" width="10" x="137.5" y="128.9648"/><rect fill="#FFFFFF" height="384.4646" style="stroke:#181818;stroke-width:1.0;" width="10" x="142.5" y="174.8113"/><rect fill="#FFFFFF" height="338.6181" style="stroke:#181818;stroke-width:1.0;" width="10" x="147.5" y="220.6577"/><rect fill="#FFFFFF" height="300.7717" style="stroke:#181818;stroke-width:1.0;" width="10" x="431.5" y="258.5042"/><rect fill="#FFFFFF" height="227.0787" style="stroke:#181818;stroke-width:1.0;" width="10" x="436.5" y="299.3507"/><rect fill="#FFFFFF" height="181.2323" style="stroke:#181818;stroke-width:1.0;" width="10" x="441.5" y="345.1971"/><rect fill="#FFFFFF" height="143.3858" style="stroke:#181818;stroke-width:1.0;" width="10" x="582.5" y="383.0436"/><rect fill="#FFFFFF" height="77.6929" style="stroke:#181818;stroke-width:1.0;" width="10" x="696.5" y="415.89"/><rect fill="#FFFFFF" height="12" style="stroke:#181818;stroke-width:1.0;" width="10" x="909.5" y="448.7365"/><line style="stroke:#181818;stroke-width:1.0;" x1="137.5" x2="184.5" y1="70.1184" y2="70.1184"/><line style="stroke:#181818;stroke-width:1.0;" x1="184.5" x2="184.5" y1="70.1184" y2="83.1184"/><line style="stroke:#181818;stroke-width:1.0;" x1="143.5" x2="184.5" y1="83.1184" y2="83.1184"/><polygon fill="#181818" points="153.5,79.1184,143.5,83.1184,153.5,87.1184,149.5,83.1184" style="stroke:#181818;stroke-width:1.0;"/><text fill="#000000" font-family="sans-serif" font-size="13" lengthAdjust="spacing" textLength="69" x="149.5" y="64.3699">createBean</text><line style="stroke:#181818;stroke-width:1.0;" x1="142.5" x2="189.5" y1="115.9648" y2="115.9648"/><line style="stroke:#181818;stroke-width:1.0;" x1="189.5" x2="189.5" y1="115.9648" y2="128.9648"/><line style="stroke:#181818;stroke-width:1.0;" x1="148.5" x2="189.5" y1="128.9648" y2="128.9648"/><polygon fill="#181818" points="158.5,124.9648,148.5,128.9648,158.5,132.9648,154.5,128.9648" style="stroke:#181818;stroke-width:1.0;"/><text fill="#000000" font-family="sans-serif" font-size="13" lengthAdjust="spacing" textLength="86" x="154.5" y="110.2164">doCreateBean</text><line style="stroke:#181818;stroke-width:1.0;" x1="147.5" x2="194.5" y1="161.8113" y2="161.8113"/><line style="stroke:#181818;stroke-width:1.0;" x1="194.5" x2="194.5" y1="161.8113" y2="174.8113"/><line style="stroke:#181818;stroke-width:1.0;" x1="153.5" x2="194.5" y1="174.8113" y2="174.8113"/><polygon fill="#181818" points="163.5,170.8113,153.5,174.8113,163.5,178.8113,159.5,174.8113" style="stroke:#181818;stroke-width:1.0;"/><text fill="#000000" font-family="sans-serif" font-size="13" lengthAdjust="spacing" textLength="84" x="159.5" y="156.0628">initializeBean</text><line style="stroke:#181818;stroke-width:1.0;" x1="152.5" x2="199.5" y1="207.6577" y2="207.6577"/><line style="stroke:#181818;stroke-width:1.0;" x1="199.5" x2="199.5" y1="207.6577" y2="220.6577"/><line style="stroke:#181818;stroke-width:1.0;" x1="158.5" x2="199.5" y1="220.6577" y2="220.6577"/><polygon fill="#181818" points="168.5,216.6577,158.5,220.6577,168.5,224.6577,164.5,220.6577" style="stroke:#181818;stroke-width:1.0;"/><text fill="#000000" font-family="sans-serif" font-size="13" lengthAdjust="spacing" textLength="265" x="164.5" y="201.9093">applyBeanPostProcessorsAfterInitialization</text><polygon fill="#181818" points="419.5,254.5042,429.5,258.5042,419.5,262.5042,423.5,258.5042" style="stroke:#181818;stroke-width:1.0;"/><line style="stroke:#181818;stroke-width:1.0;" x1="157.5" x2="425.5" y1="258.5042" y2="258.5042"/><text fill="#000000" font-family="sans-serif" font-size="13" lengthAdjust="spacing" textLength="181" x="164.5" y="252.7557">postProcessAfterInitialization</text><line style="stroke:#181818;stroke-width:1.0;" x1="441.5" x2="488.5" y1="286.3507" y2="286.3507"/><line style="stroke:#181818;stroke-width:1.0;" x1="488.5" x2="488.5" y1="286.3507" y2="299.3507"/><line style="stroke:#181818;stroke-width:1.0;" x1="447.5" x2="488.5" y1="299.3507" y2="299.3507"/><polygon fill="#181818" points="457.5,295.3507,447.5,299.3507,457.5,303.3507,453.5,299.3507" style="stroke:#181818;stroke-width:1.0;"/><text fill="#000000" font-family="sans-serif" font-size="13" lengthAdjust="spacing" textLength="99" x="453.5" y="280.6022">wrapIfNecessary</text><line style="stroke:#181818;stroke-width:1.0;" x1="446.5" x2="493.5" y1="332.1971" y2="332.1971"/><line style="stroke:#181818;stroke-width:1.0;" x1="493.5" x2="493.5" y1="332.1971" y2="345.1971"/><line style="stroke:#181818;stroke-width:1.0;" x1="452.5" x2="493.5" y1="345.1971" y2="345.1971"/><polygon fill="#181818" points="462.5,341.1971,452.5,345.1971,462.5,349.1971,458.5,345.1971" style="stroke:#181818;stroke-width:1.0;"/><text fill="#000000" font-family="sans-serif" font-size="13" lengthAdjust="spacing" textLength="72" x="458.5" y="326.4486">createProxy</text><polygon fill="#181818" points="570.5,379.0436,580.5,383.0436,570.5,387.0436,574.5,383.0436" style="stroke:#181818;stroke-width:1.0;"/><line style="stroke:#181818;stroke-width:1.0;" x1="451.5" x2="576.5" y1="383.0436" y2="383.0436"/><text fill="#000000" font-family="sans-serif" font-size="13" lengthAdjust="spacing" textLength="53" x="458.5" y="377.2951">getProxy</text><polygon fill="#181818" points="684.5,411.89,694.5,415.89,684.5,419.89,688.5,415.89" style="stroke:#181818;stroke-width:1.0;"/><line style="stroke:#181818;stroke-width:1.0;" x1="592.5" x2="690.5" y1="415.89" y2="415.89"/><text fill="#000000" font-family="sans-serif" font-size="13" lengthAdjust="spacing" textLength="53" x="599.5" y="410.1416">getProxy</text><polygon fill="#181818" points="897.5,444.7365,907.5,448.7365,897.5,452.7365,901.5,448.7365" style="stroke:#181818;stroke-width:1.0;"/><line style="stroke:#181818;stroke-width:1.0;" x1="706.5" x2="903.5" y1="448.7365" y2="448.7365"/><text fill="#000000" font-family="sans-serif" font-size="13" lengthAdjust="spacing" textLength="179" x="713.5" y="442.988">createProxyClassAndInstance</text><polygon fill="#181818" points="717.5,456.7365,707.5,460.7365,717.5,464.7365,713.5,460.7365" style="stroke:#181818;stroke-width:1.0;"/><line style="stroke:#181818;stroke-width:1.0;stroke-dasharray:2.0,2.0;" x1="711.5" x2="913.5" y1="460.7365" y2="460.7365"/><text fill="#000000" font-family="sans-serif" font-size="13" lengthAdjust="spacing" textLength="179" x="723.5" y="476.8345">createProxyClassAndInstance</text><polygon fill="#181818" points="603.5,489.5829,593.5,493.5829,603.5,497.5829,599.5,493.5829" style="stroke:#181818;stroke-width:1.0;"/><line style="stroke:#181818;stroke-width:1.0;stroke-dasharray:2.0,2.0;" x1="597.5" x2="700.5" y1="493.5829" y2="493.5829"/><text fill="#000000" font-family="sans-serif" font-size="13" lengthAdjust="spacing" textLength="53" x="609.5" y="509.6809">getProxy</text><polygon fill="#181818" points="452.5,522.4294,442.5,526.4294,452.5,530.4294,448.5,526.4294" style="stroke:#181818;stroke-width:1.0;"/><line style="stroke:#181818;stroke-width:1.0;stroke-dasharray:2.0,2.0;" x1="446.5" x2="586.5" y1="526.4294" y2="526.4294"/><text fill="#000000" font-family="sans-serif" font-size="13" lengthAdjust="spacing" textLength="53" x="458.5" y="542.5274">getProxy</text><polygon fill="#181818" points="148.5,555.2758,138.5,559.2758,148.5,563.2758,144.5,559.2758" style="stroke:#181818;stroke-width:1.0;"/><line style="stroke:#181818;stroke-width:1.0;stroke-dasharray:2.0,2.0;" x1="142.5" x2="435.5" y1="559.2758" y2="559.2758"/><text fill="#000000" font-family="sans-serif" font-size="13" lengthAdjust="spacing" textLength="181" x="154.5" y="575.3738">postProcessAfterInitialization</text><!--MD5=[8c55c5776221e984b58c1727c96234fa]
@startuml
skinparam responseMessageBelowArrow true
AbstractAutowireCapableBeanFactory -> AbstractAutowireCapableBeanFactory: createBean
activate AbstractAutowireCapableBeanFactory
AbstractAutowireCapableBeanFactory -> AbstractAutowireCapableBeanFactory: doCreateBean
activate AbstractAutowireCapableBeanFactory
AbstractAutowireCapableBeanFactory -> AbstractAutowireCapableBeanFactory: initializeBean
activate AbstractAutowireCapableBeanFactory
AbstractAutowireCapableBeanFactory -> AbstractAutowireCapableBeanFactory: applyBeanPostProcessorsAfterInitialization
activate AbstractAutowireCapableBeanFactory
AbstractAutowireCapableBeanFactory -> AbstractAutoProxyCreator: postProcessAfterInitialization
activate AbstractAutoProxyCreator
AbstractAutoProxyCreator -> AbstractAutoProxyCreator: wrapIfNecessary
activate AbstractAutoProxyCreator
AbstractAutoProxyCreator -> AbstractAutoProxyCreator: createProxy
activate AbstractAutoProxyCreator
AbstractAutoProxyCreator -> ProxyFactory: getProxy
activate ProxyFactory
ProxyFactory -> CglibAopProxy: getProxy
activate CglibAopProxy
CglibAopProxy -> ObjenesisCglibAopProxy: createProxyClassAndInstance
activate ObjenesisCglibAopProxy
ObjenesisCglibAopProxy - -> CglibAopProxy: createProxyClassAndInstance
deactivate ObjenesisCglibAopProxy
CglibAopProxy - -> ProxyFactory: getProxy
deactivate CglibAopProxy
ProxyFactory - -> AbstractAutoProxyCreator: getProxy
deactivate ProxyFactory
deactivate AbstractAutoProxyCreator
deactivate AbstractAutoProxyCreator
AbstractAutoProxyCreator - -> AbstractAutowireCapableBeanFactory: postProcessAfterInitialization
deactivate AbstractAutoProxyCreator
deactivate AbstractAutowireCapableBeanFactory
deactivate AbstractAutowireCapableBeanFactory
deactivate AbstractAutowireCapableBeanFactory
deactivate AbstractAutowireCapableBeanFactory
@enduml

PlantUML version 1.2022.13(Sat Nov 19 21:22:17 CST 2022)
(GPL source distribution)
Java Runtime: OpenJDK Runtime Environment
JVM: OpenJDK 64-Bit Server VM
Default Encoding: UTF-8
Language: zh
Country: CN
--></g></svg>