<?xml version="1.0" encoding="UTF-8" standalone="no"?><svg xmlns="http://www.w3.org/2000/svg" xmlns:xlink="http://www.w3.org/1999/xlink" contentStyleType="text/css" height="1748px" preserveAspectRatio="none" style="width:2772px;height:1748px;background:#FFFFFF;" version="1.1" viewBox="0 0 2772 1748" width="2772px" zoomAndPan="magnify"><defs/><g><rect fill="#FFFFFF" height="1586.7835" style="stroke:#181818;stroke-width:1.0;" width="10" x="172" y="83.1184"/><rect fill="#FFFFFF" height="842.0079" style="stroke:#181818;stroke-width:1.0;" width="10" x="177" y="520.2758"/><rect fill="#FFFFFF" height="1548.937" style="stroke:#181818;stroke-width:1.0;" width="10" x="501" y="120.9648"/><rect fill="#FFFFFF" height="1150.626" style="stroke:#181818;stroke-width:1.0;" width="10" x="506" y="343.0436"/><rect fill="#FFFFFF" height="734.622" style="stroke:#181818;stroke-width:1.0;" width="10" x="511" y="573.9688"/><rect fill="#FFFFFF" height="1483.2441" style="stroke:#181818;stroke-width:1.0;" width="10" x="713" y="153.8113"/><rect fill="#FFFFFF" height="1409.5512" style="stroke:#181818;stroke-width:1.0;" width="10" x="718" y="194.6577"/><rect fill="#FFFFFF" height="1043.2402" style="stroke:#181818;stroke-width:1.0;" width="10" x="723" y="396.7365"/><rect fill="#FFFFFF" height="969.5472" style="stroke:#181818;stroke-width:1.0;" width="10" x="728" y="437.5829"/><rect fill="#FFFFFF" height="1371.7047" style="stroke:#181818;stroke-width:1.0;" width="10" x="835" y="232.5042"/><rect fill="#FFFFFF" height="931.7008" style="stroke:#181818;stroke-width:1.0;" width="10" x="840" y="475.4294"/><rect fill="#FFFFFF" height="185.0787" style="stroke:#181818;stroke-width:1.0;" width="10" x="845" y="848.7404"/><rect fill="#FFFFFF" height="1306.0118" style="stroke:#181818;stroke-width:1.0;" width="10" x="1067.5" y="265.3507"/><rect fill="#FFFFFF" height="866.0079" style="stroke:#181818;stroke-width:1.0;" width="10" x="1072.5" y="508.2758"/><rect fill="#FFFFFF" height="77.6929" style="stroke:#181818;stroke-width:1.0;" width="10" x="1077.5" y="902.4333"/><rect fill="#FFFFFF" height="1240.3189" style="stroke:#181818;stroke-width:1.0;" width="10" x="1309" y="298.1971"/><rect fill="#FFFFFF" height="12" style="stroke:#181818;stroke-width:1.0;" width="10" x="1314" y="935.2798"/><rect fill="#FFFFFF" height="1174.626" style="stroke:#181818;stroke-width:1.0;" width="10" x="1550" y="331.0436"/><rect fill="#FFFFFF" height="668.9291" style="stroke:#181818;stroke-width:1.0;" width="10" x="1863.5" y="606.8152"/><rect fill="#FFFFFF" height="382.1575" style="stroke:#181818;stroke-width:1.0;" width="10" x="1868.5" y="750.201"/><rect fill="#FFFFFF" height="250.7717" style="stroke:#181818;stroke-width:1.0;" width="10" x="1873.5" y="815.894"/><rect fill="#FFFFFF" height="603.2362" style="stroke:#181818;stroke-width:1.0;" width="10" x="2104" y="639.6617"/><rect fill="#FFFFFF" height="274.7717" style="stroke:#181818;stroke-width:1.0;" width="10" x="2109" y="803.894"/><rect fill="#FFFFFF" height="537.5433" style="stroke:#181818;stroke-width:1.0;" width="10" x="2295.5" y="672.5081"/><rect fill="#FFFFFF" height="471.8504" style="stroke:#181818;stroke-width:1.0;" width="10" x="2483.5" y="705.3546"/><rect fill="#FFFFFF" height="406.1575" style="stroke:#181818;stroke-width:1.0;" width="10" x="2675" y="738.201"/><line style="stroke:#181818;stroke-width:0.5;stroke-dasharray:5.0,5.0;" x1="177" x2="177" y1="40.2719" y2="1708.7483"/><line style="stroke:#181818;stroke-width:0.5;stroke-dasharray:5.0,5.0;" x1="506" x2="506" y1="40.2719" y2="1708.7483"/><line style="stroke:#181818;stroke-width:0.5;stroke-dasharray:5.0,5.0;" x1="718" x2="718" y1="40.2719" y2="1708.7483"/><line style="stroke:#181818;stroke-width:0.5;stroke-dasharray:5.0,5.0;" x1="840" x2="840" y1="40.2719" y2="1708.7483"/><line style="stroke:#181818;stroke-width:0.5;stroke-dasharray:5.0,5.0;" x1="1072" x2="1072" y1="40.2719" y2="1708.7483"/><line style="stroke:#181818;stroke-width:0.5;stroke-dasharray:5.0,5.0;" x1="1314" x2="1314" y1="40.2719" y2="1708.7483"/><line style="stroke:#181818;stroke-width:0.5;stroke-dasharray:5.0,5.0;" x1="1555" x2="1555" y1="40.2719" y2="1708.7483"/><line style="stroke:#181818;stroke-width:0.5;stroke-dasharray:5.0,5.0;" x1="1868" x2="1868" y1="40.2719" y2="1708.7483"/><line style="stroke:#181818;stroke-width:0.5;stroke-dasharray:5.0,5.0;" x1="2109" x2="2109" y1="40.2719" y2="1708.7483"/><line style="stroke:#181818;stroke-width:0.5;stroke-dasharray:5.0,5.0;" x1="2300" x2="2300" y1="40.2719" y2="1708.7483"/><line style="stroke:#181818;stroke-width:0.5;stroke-dasharray:5.0,5.0;" x1="2488.5" x2="2488.5" y1="40.2719" y2="1708.7483"/><line style="stroke:#181818;stroke-width:0.5;stroke-dasharray:5.0,5.0;" x1="2679.5" x2="2679.5" y1="40.2719" y2="1708.7483"/><rect fill="#E2E2F0" height="34.2719" rx="2.5" ry="2.5" style="stroke:#181818;stroke-width:0.5;" width="344" x="5" y="5"/><text fill="#000000" font-family="sans-serif" font-size="14" lengthAdjust="spacing" textLength="330" x="12" y="28.2399">DemoControllerEnhancerBySpringCGLIBdf2ad0b7</text><rect fill="#E2E2F0" height="34.2719" rx="2.5" ry="2.5" style="stroke:#181818;stroke-width:0.5;" width="344" x="5" y="1707.7483"/><text fill="#000000" font-family="sans-serif" font-size="14" lengthAdjust="spacing" textLength="330" x="12" y="1730.9882">DemoControllerEnhancerBySpringCGLIBdf2ad0b7</text><rect fill="#E2E2F0" height="34.2719" rx="2.5" ry="2.5" style="stroke:#181818;stroke-width:0.5;" width="294" x="359" y="5"/><text fill="#000000" font-family="sans-serif" font-size="14" lengthAdjust="spacing" textLength="280" x="366" y="28.2399">CglibAopProxyDynamicAdvisedInterceptor</text><rect fill="#E2E2F0" height="34.2719" rx="2.5" ry="2.5" style="stroke:#181818;stroke-width:0.5;" width="294" x="359" y="1707.7483"/><text fill="#000000" font-family="sans-serif" font-size="14" lengthAdjust="spacing" textLength="280" x="366" y="1730.9882">CglibAopProxyDynamicAdvisedInterceptor</text><rect fill="#E2E2F0" height="34.2719" rx="2.5" ry="2.5" style="stroke:#181818;stroke-width:0.5;" width="110" x="663" y="5"/><text fill="#000000" font-family="sans-serif" font-size="14" lengthAdjust="spacing" textLength="96" x="670" y="28.2399">CglibAopProxy</text><rect fill="#E2E2F0" height="34.2719" rx="2.5" ry="2.5" style="stroke:#181818;stroke-width:0.5;" width="110" x="663" y="1707.7483"/><text fill="#000000" font-family="sans-serif" font-size="14" lengthAdjust="spacing" textLength="96" x="670" y="1730.9882">CglibAopProxy</text><rect fill="#E2E2F0" height="34.2719" rx="2.5" ry="2.5" style="stroke:#181818;stroke-width:0.5;" width="100" x="790" y="5"/><text fill="#000000" font-family="sans-serif" font-size="14" lengthAdjust="spacing" textLength="86" x="797" y="28.2399">MethodProxy</text><rect fill="#E2E2F0" height="34.2719" rx="2.5" ry="2.5" style="stroke:#181818;stroke-width:0.5;" width="100" x="790" y="1707.7483"/><text fill="#000000" font-family="sans-serif" font-size="14" lengthAdjust="spacing" textLength="86" x="797" y="1730.9882">MethodProxy</text><rect fill="#E2E2F0" height="34.2719" rx="2.5" ry="2.5" style="stroke:#181818;stroke-width:0.5;" width="345" x="900" y="5"/><text fill="#000000" font-family="sans-serif" font-size="14" lengthAdjust="spacing" textLength="331" x="907" y="28.2399">DemoControllerFastClassBySpringCGLIBcae03d3d</text><rect fill="#E2E2F0" height="34.2719" rx="2.5" ry="2.5" style="stroke:#181818;stroke-width:0.5;" width="345" x="900" y="1707.7483"/><text fill="#000000" font-family="sans-serif" font-size="14" lengthAdjust="spacing" textLength="331" x="907" y="1730.9882">DemoControllerFastClassBySpringCGLIBcae03d3d</text><rect fill="#E2E2F0" height="34.2719" rx="2.5" ry="2.5" style="stroke:#181818;stroke-width:0.5;" width="118" x="1255" y="5"/><text fill="#000000" font-family="sans-serif" font-size="14" lengthAdjust="spacing" textLength="104" x="1262" y="28.2399">DemoController</text><rect fill="#E2E2F0" height="34.2719" rx="2.5" ry="2.5" style="stroke:#181818;stroke-width:0.5;" width="118" x="1255" y="1707.7483"/><text fill="#000000" font-family="sans-serif" font-size="14" lengthAdjust="spacing" textLength="104" x="1262" y="1730.9882">DemoController</text><rect fill="#E2E2F0" height="34.2719" rx="2.5" ry="2.5" style="stroke:#181818;stroke-width:0.5;" width="344" x="1383" y="5"/><text fill="#000000" font-family="sans-serif" font-size="14" lengthAdjust="spacing" textLength="330" x="1390" y="28.2399">DemoControllerEnhancerBySpringCGLIBecae1b88</text><rect fill="#E2E2F0" height="34.2719" rx="2.5" ry="2.5" style="stroke:#181818;stroke-width:0.5;" width="344" x="1383" y="1707.7483"/><text fill="#000000" font-family="sans-serif" font-size="14" lengthAdjust="spacing" textLength="330" x="1390" y="1730.9882">DemoControllerEnhancerBySpringCGLIBecae1b88</text><rect fill="#E2E2F0" height="34.2719" rx="2.5" ry="2.5" style="stroke:#181818;stroke-width:0.5;" width="263" x="1737" y="5"/><text fill="#000000" font-family="sans-serif" font-size="14" lengthAdjust="spacing" textLength="249" x="1744" y="28.2399">CglibAopProxyCglibMethodInvocation</text><rect fill="#E2E2F0" height="34.2719" rx="2.5" ry="2.5" style="stroke:#181818;stroke-width:0.5;" width="263" x="1737" y="1707.7483"/><text fill="#000000" font-family="sans-serif" font-size="14" lengthAdjust="spacing" textLength="249" x="1744" y="1730.9882">CglibAopProxyCglibMethodInvocation</text><rect fill="#E2E2F0" height="34.2719" rx="2.5" ry="2.5" style="stroke:#181818;stroke-width:0.5;" width="198" x="2010" y="5"/><text fill="#000000" font-family="sans-serif" font-size="14" lengthAdjust="spacing" textLength="184" x="2017" y="28.2399">ReflectiveMethodInvocation</text><rect fill="#E2E2F0" height="34.2719" rx="2.5" ry="2.5" style="stroke:#181818;stroke-width:0.5;" width="198" x="2010" y="1707.7483"/><text fill="#000000" font-family="sans-serif" font-size="14" lengthAdjust="spacing" textLength="184" x="2017" y="1730.9882">ReflectiveMethodInvocation</text><rect fill="#E2E2F0" height="34.2719" rx="2.5" ry="2.5" style="stroke:#181818;stroke-width:0.5;" width="165" x="2218" y="5"/><text fill="#000000" font-family="sans-serif" font-size="14" lengthAdjust="spacing" textLength="151" x="2225" y="28.2399">TransactionInterceptor</text><rect fill="#E2E2F0" height="34.2719" rx="2.5" ry="2.5" style="stroke:#181818;stroke-width:0.5;" width="165" x="2218" y="1707.7483"/><text fill="#000000" font-family="sans-serif" font-size="14" lengthAdjust="spacing" textLength="151" x="2225" y="1730.9882">TransactionInterceptor</text><rect fill="#E2E2F0" height="34.2719" rx="2.5" ry="2.5" style="stroke:#181818;stroke-width:0.5;" width="190" x="2393.5" y="5"/><text fill="#000000" font-family="sans-serif" font-size="14" lengthAdjust="spacing" textLength="176" x="2400.5" y="28.2399">TransactionAspectSupport</text><rect fill="#E2E2F0" height="34.2719" rx="2.5" ry="2.5" style="stroke:#181818;stroke-width:0.5;" width="190" x="2393.5" y="1707.7483"/><text fill="#000000" font-family="sans-serif" font-size="14" lengthAdjust="spacing" textLength="176" x="2400.5" y="1730.9882">TransactionAspectSupport</text><rect fill="#E2E2F0" height="34.2719" rx="2.5" ry="2.5" style="stroke:#181818;stroke-width:0.5;" width="173" x="2593.5" y="5"/><text fill="#000000" font-family="sans-serif" font-size="14" lengthAdjust="spacing" textLength="159" x="2600.5" y="28.2399">TransactionInterceptor1</text><rect fill="#E2E2F0" height="34.2719" rx="2.5" ry="2.5" style="stroke:#181818;stroke-width:0.5;" width="173" x="2593.5" y="1707.7483"/><text fill="#000000" font-family="sans-serif" font-size="14" lengthAdjust="spacing" textLength="159" x="2600.5" y="1730.9882">TransactionInterceptor1</text><rect fill="#FFFFFF" height="1586.7835" style="stroke:#181818;stroke-width:1.0;" width="10" x="172" y="83.1184"/><rect fill="#FFFFFF" height="842.0079" style="stroke:#181818;stroke-width:1.0;" width="10" x="177" y="520.2758"/><rect fill="#FFFFFF" height="1548.937" style="stroke:#181818;stroke-width:1.0;" width="10" x="501" y="120.9648"/><rect fill="#FFFFFF" height="1150.626" style="stroke:#181818;stroke-width:1.0;" width="10" x="506" y="343.0436"/><rect fill="#FFFFFF" height="734.622" style="stroke:#181818;stroke-width:1.0;" width="10" x="511" y="573.9688"/><rect fill="#FFFFFF" height="1483.2441" style="stroke:#181818;stroke-width:1.0;" width="10" x="713" y="153.8113"/><rect fill="#FFFFFF" height="1409.5512" style="stroke:#181818;stroke-width:1.0;" width="10" x="718" y="194.6577"/><rect fill="#FFFFFF" height="1043.2402" style="stroke:#181818;stroke-width:1.0;" width="10" x="723" y="396.7365"/><rect fill="#FFFFFF" height="969.5472" style="stroke:#181818;stroke-width:1.0;" width="10" x="728" y="437.5829"/><rect fill="#FFFFFF" height="1371.7047" style="stroke:#181818;stroke-width:1.0;" width="10" x="835" y="232.5042"/><rect fill="#FFFFFF" height="931.7008" style="stroke:#181818;stroke-width:1.0;" width="10" x="840" y="475.4294"/><rect fill="#FFFFFF" height="185.0787" style="stroke:#181818;stroke-width:1.0;" width="10" x="845" y="848.7404"/><rect fill="#FFFFFF" height="1306.0118" style="stroke:#181818;stroke-width:1.0;" width="10" x="1067.5" y="265.3507"/><rect fill="#FFFFFF" height="866.0079" style="stroke:#181818;stroke-width:1.0;" width="10" x="1072.5" y="508.2758"/><rect fill="#FFFFFF" height="77.6929" style="stroke:#181818;stroke-width:1.0;" width="10" x="1077.5" y="902.4333"/><rect fill="#FFFFFF" height="1240.3189" style="stroke:#181818;stroke-width:1.0;" width="10" x="1309" y="298.1971"/><rect fill="#FFFFFF" height="12" style="stroke:#181818;stroke-width:1.0;" width="10" x="1314" y="935.2798"/><rect fill="#FFFFFF" height="1174.626" style="stroke:#181818;stroke-width:1.0;" width="10" x="1550" y="331.0436"/><rect fill="#FFFFFF" height="668.9291" style="stroke:#181818;stroke-width:1.0;" width="10" x="1863.5" y="606.8152"/><rect fill="#FFFFFF" height="382.1575" style="stroke:#181818;stroke-width:1.0;" width="10" x="1868.5" y="750.201"/><rect fill="#FFFFFF" height="250.7717" style="stroke:#181818;stroke-width:1.0;" width="10" x="1873.5" y="815.894"/><rect fill="#FFFFFF" height="603.2362" style="stroke:#181818;stroke-width:1.0;" width="10" x="2104" y="639.6617"/><rect fill="#FFFFFF" height="274.7717" style="stroke:#181818;stroke-width:1.0;" width="10" x="2109" y="803.894"/><rect fill="#FFFFFF" height="537.5433" style="stroke:#181818;stroke-width:1.0;" width="10" x="2295.5" y="672.5081"/><rect fill="#FFFFFF" height="471.8504" style="stroke:#181818;stroke-width:1.0;" width="10" x="2483.5" y="705.3546"/><rect fill="#FFFFFF" height="406.1575" style="stroke:#181818;stroke-width:1.0;" width="10" x="2675" y="738.201"/><line style="stroke:#181818;stroke-width:1.0;" x1="177" x2="224" y1="70.1184" y2="70.1184"/><line style="stroke:#181818;stroke-width:1.0;" x1="224" x2="224" y1="70.1184" y2="83.1184"/><line style="stroke:#181818;stroke-width:1.0;" x1="183" x2="224" y1="83.1184" y2="83.1184"/><polygon fill="#181818" points="193,79.1184,183,83.1184,193,87.1184,189,83.1184" style="stroke:#181818;stroke-width:1.0;"/><text fill="#000000" font-family="sans-serif" font-size="13" lengthAdjust="spacing" textLength="149" x="189" y="64.3699">successByBeanInjection</text><polygon fill="#181818" points="489,116.9648,499,120.9648,489,124.9648,493,120.9648" style="stroke:#181818;stroke-width:1.0;"/><line style="stroke:#181818;stroke-width:1.0;" x1="182" x2="495" y1="120.9648" y2="120.9648"/><text fill="#000000" font-family="sans-serif" font-size="13" lengthAdjust="spacing" textLength="56" x="189" y="115.2164">intercept</text><polygon fill="#181818" points="701,149.8113,711,153.8113,701,157.8113,705,153.8113" style="stroke:#181818;stroke-width:1.0;"/><line style="stroke:#181818;stroke-width:1.0;" x1="511" x2="707" y1="153.8113" y2="153.8113"/><text fill="#000000" font-family="sans-serif" font-size="13" lengthAdjust="spacing" textLength="68" x="518" y="148.0628">access$000</text><line style="stroke:#181818;stroke-width:1.0;" x1="723" x2="770" y1="181.6577" y2="181.6577"/><line style="stroke:#181818;stroke-width:1.0;" x1="770" x2="770" y1="181.6577" y2="194.6577"/><line style="stroke:#181818;stroke-width:1.0;" x1="729" x2="770" y1="194.6577" y2="194.6577"/><polygon fill="#181818" points="739,190.6577,729,194.6577,739,198.6577,735,194.6577" style="stroke:#181818;stroke-width:1.0;"/><text fill="#000000" font-family="sans-serif" font-size="13" lengthAdjust="spacing" textLength="88" x="735" y="175.9093">invokeMethod</text><polygon fill="#181818" points="823,228.5042,833,232.5042,823,236.5042,827,232.5042" style="stroke:#181818;stroke-width:1.0;"/><line style="stroke:#181818;stroke-width:1.0;" x1="728" x2="829" y1="232.5042" y2="232.5042"/><text fill="#000000" font-family="sans-serif" font-size="13" lengthAdjust="spacing" textLength="41" x="735" y="226.7557">invoke</text><polygon fill="#181818" points="1055.5,261.3507,1065.5,265.3507,1055.5,269.3507,1059.5,265.3507" style="stroke:#181818;stroke-width:1.0;"/><line style="stroke:#181818;stroke-width:1.0;" x1="845" x2="1061.5" y1="265.3507" y2="265.3507"/><text fill="#000000" font-family="sans-serif" font-size="13" lengthAdjust="spacing" textLength="41" x="852" y="259.6022">invoke</text><polygon fill="#181818" points="1297,294.1971,1307,298.1971,1297,302.1971,1301,298.1971" style="stroke:#181818;stroke-width:1.0;"/><line style="stroke:#181818;stroke-width:1.0;" x1="1077.5" x2="1303" y1="298.1971" y2="298.1971"/><text fill="#000000" font-family="sans-serif" font-size="13" lengthAdjust="spacing" textLength="149" x="1084.5" y="292.4486">successByBeanInjection</text><polygon fill="#181818" points="1538,327.0436,1548,331.0436,1538,335.0436,1542,331.0436" style="stroke:#181818;stroke-width:1.0;"/><line style="stroke:#181818;stroke-width:1.0;" x1="1319" x2="1544" y1="331.0436" y2="331.0436"/><text fill="#000000" font-family="sans-serif" font-size="13" lengthAdjust="spacing" textLength="114" x="1326" y="325.2951">myControllerLogic</text><polygon fill="#181818" points="527,339.0436,517,343.0436,527,347.0436,523,343.0436" style="stroke:#181818;stroke-width:1.0;"/><line style="stroke:#181818;stroke-width:1.0;" x1="521" x2="1549" y1="343.0436" y2="343.0436"/><text fill="#000000" font-family="sans-serif" font-size="13" lengthAdjust="spacing" textLength="56" x="533" y="359.1416">intercept</text><polygon fill="#181818" points="711,392.7365,721,396.7365,711,400.7365,715,396.7365" style="stroke:#181818;stroke-width:1.0;"/><line style="stroke:#181818;stroke-width:1.0;" x1="516" x2="717" y1="396.7365" y2="396.7365"/><text fill="#000000" font-family="sans-serif" font-size="13" lengthAdjust="spacing" textLength="68" x="523" y="390.988">access$000</text><line style="stroke:#181818;stroke-width:1.0;" x1="733" x2="780" y1="424.5829" y2="424.5829"/><line style="stroke:#181818;stroke-width:1.0;" x1="780" x2="780" y1="424.5829" y2="437.5829"/><line style="stroke:#181818;stroke-width:1.0;" x1="739" x2="780" y1="437.5829" y2="437.5829"/><polygon fill="#181818" points="749,433.5829,739,437.5829,749,441.5829,745,437.5829" style="stroke:#181818;stroke-width:1.0;"/><text fill="#000000" font-family="sans-serif" font-size="13" lengthAdjust="spacing" textLength="88" x="745" y="418.8345">invokeMethod</text><polygon fill="#181818" points="828,471.4294,838,475.4294,828,479.4294,832,475.4294" style="stroke:#181818;stroke-width:1.0;"/><line style="stroke:#181818;stroke-width:1.0;" x1="738" x2="834" y1="475.4294" y2="475.4294"/><text fill="#000000" font-family="sans-serif" font-size="13" lengthAdjust="spacing" textLength="41" x="745" y="469.6809">invoke</text><polygon fill="#181818" points="1060.5,504.2758,1070.5,508.2758,1060.5,512.2758,1064.5,508.2758" style="stroke:#181818;stroke-width:1.0;"/><line style="stroke:#181818;stroke-width:1.0;" x1="850" x2="1066.5" y1="508.2758" y2="508.2758"/><text fill="#000000" font-family="sans-serif" font-size="13" lengthAdjust="spacing" textLength="41" x="857" y="502.5274">invoke</text><polygon fill="#181818" points="198,516.2758,188,520.2758,198,524.2758,194,520.2758" style="stroke:#181818;stroke-width:1.0;"/><line style="stroke:#181818;stroke-width:1.0;" x1="192" x2="1071.5" y1="520.2758" y2="520.2758"/><text fill="#000000" font-family="sans-serif" font-size="13" lengthAdjust="spacing" textLength="114" x="204" y="536.3738">myControllerLogic</text><polygon fill="#181818" points="499,569.9688,509,573.9688,499,577.9688,503,573.9688" style="stroke:#181818;stroke-width:1.0;"/><line style="stroke:#181818;stroke-width:1.0;" x1="187" x2="505" y1="573.9688" y2="573.9688"/><text fill="#000000" font-family="sans-serif" font-size="13" lengthAdjust="spacing" textLength="56" x="194" y="568.2203">intercept</text><polygon fill="#181818" points="1851.5,602.8152,1861.5,606.8152,1851.5,610.8152,1855.5,606.8152" style="stroke:#181818;stroke-width:1.0;"/><line style="stroke:#181818;stroke-width:1.0;" x1="521" x2="1857.5" y1="606.8152" y2="606.8152"/><text fill="#000000" font-family="sans-serif" font-size="13" lengthAdjust="spacing" textLength="50" x="528" y="601.0667">proceed</text><polygon fill="#181818" points="2092,635.6617,2102,639.6617,2092,643.6617,2096,639.6617" style="stroke:#181818;stroke-width:1.0;"/><line style="stroke:#181818;stroke-width:1.0;" x1="1873.5" x2="2098" y1="639.6617" y2="639.6617"/><text fill="#000000" font-family="sans-serif" font-size="13" lengthAdjust="spacing" textLength="50" x="1880.5" y="633.9132">proceed</text><polygon fill="#181818" points="2283.5,668.5081,2293.5,672.5081,2283.5,676.5081,2287.5,672.5081" style="stroke:#181818;stroke-width:1.0;"/><line style="stroke:#181818;stroke-width:1.0;" x1="2114" x2="2289.5" y1="672.5081" y2="672.5081"/><text fill="#000000" font-family="sans-serif" font-size="13" lengthAdjust="spacing" textLength="41" x="2121" y="666.7597">invoke</text><polygon fill="#181818" points="2471.5,701.3546,2481.5,705.3546,2471.5,709.3546,2475.5,705.3546" style="stroke:#181818;stroke-width:1.0;"/><line style="stroke:#181818;stroke-width:1.0;" x1="2305.5" x2="2477.5" y1="705.3546" y2="705.3546"/><text fill="#000000" font-family="sans-serif" font-size="13" lengthAdjust="spacing" textLength="154" x="2312.5" y="699.6061">invokeWithinTransaction</text><polygon fill="#181818" points="2663,734.201,2673,738.201,2663,742.201,2667,738.201" style="stroke:#181818;stroke-width:1.0;"/><line style="stroke:#181818;stroke-width:1.0;" x1="2493.5" x2="2669" y1="738.201" y2="738.201"/><text fill="#000000" font-family="sans-serif" font-size="13" lengthAdjust="spacing" textLength="144" x="2500.5" y="732.4526">proceedWithInvocation</text><polygon fill="#181818" points="1889.5,746.201,1879.5,750.201,1889.5,754.201,1885.5,750.201" style="stroke:#181818;stroke-width:1.0;"/><line style="stroke:#181818;stroke-width:1.0;" x1="1883.5" x2="2674" y1="750.201" y2="750.201"/><text fill="#000000" font-family="sans-serif" font-size="13" lengthAdjust="spacing" textLength="50" x="1895.5" y="766.299">proceed</text><polygon fill="#181818" points="2097,799.894,2107,803.894,2097,807.894,2101,803.894" style="stroke:#181818;stroke-width:1.0;"/><line style="stroke:#181818;stroke-width:1.0;" x1="1878.5" x2="2103" y1="803.894" y2="803.894"/><text fill="#000000" font-family="sans-serif" font-size="13" lengthAdjust="spacing" textLength="50" x="1885.5" y="798.1455">proceed</text><polygon fill="#181818" points="1894.5,811.894,1884.5,815.894,1894.5,819.894,1890.5,815.894" style="stroke:#181818;stroke-width:1.0;"/><line style="stroke:#181818;stroke-width:1.0;" x1="1888.5" x2="2108" y1="815.894" y2="815.894"/><text fill="#000000" font-family="sans-serif" font-size="13" lengthAdjust="spacing" textLength="101" x="1900.5" y="831.9919">invokeJoinpoint</text><polygon fill="#181818" points="866,844.7404,856,848.7404,866,852.7404,862,848.7404" style="stroke:#181818;stroke-width:1.0;"/><line style="stroke:#181818;stroke-width:1.0;" x1="860" x2="1872.5" y1="848.7404" y2="848.7404"/><text fill="#000000" font-family="sans-serif" font-size="13" lengthAdjust="spacing" textLength="41" x="872" y="864.8384">invoke</text><polygon fill="#181818" points="1065.5,898.4333,1075.5,902.4333,1065.5,906.4333,1069.5,902.4333" style="stroke:#181818;stroke-width:1.0;"/><line style="stroke:#181818;stroke-width:1.0;" x1="855" x2="1071.5" y1="902.4333" y2="902.4333"/><text fill="#000000" font-family="sans-serif" font-size="13" lengthAdjust="spacing" textLength="41" x="862" y="896.6849">invoke</text><polygon fill="#181818" points="1302,931.2798,1312,935.2798,1302,939.2798,1306,935.2798" style="stroke:#181818;stroke-width:1.0;"/><line style="stroke:#181818;stroke-width:1.0;" x1="1087.5" x2="1308" y1="935.2798" y2="935.2798"/><text fill="#000000" font-family="sans-serif" font-size="13" lengthAdjust="spacing" textLength="114" x="1094.5" y="929.5313">myControllerLogic</text><polygon fill="#181818" points="1098.5,943.2798,1088.5,947.2798,1098.5,951.2798,1094.5,947.2798" style="stroke:#181818;stroke-width:1.0;"/><line style="stroke:#181818;stroke-width:1.0;stroke-dasharray:2.0,2.0;" x1="1092.5" x2="1308" y1="947.2798" y2="947.2798"/><text fill="#000000" font-family="sans-serif" font-size="13" lengthAdjust="spacing" textLength="114" x="1104.5" y="963.3778">myControllerLogic</text><polygon fill="#181818" points="866,976.1262,856,980.1262,866,984.1262,862,980.1262" style="stroke:#181818;stroke-width:1.0;"/><line style="stroke:#181818;stroke-width:1.0;stroke-dasharray:2.0,2.0;" x1="860" x2="1071.5" y1="980.1262" y2="980.1262"/><text fill="#000000" font-family="sans-serif" font-size="13" lengthAdjust="spacing" textLength="41" x="872" y="996.2242">invoke</text><polygon fill="#181818" points="1861.5,1029.8192,1871.5,1033.8192,1861.5,1037.8192,1865.5,1033.8192" style="stroke:#181818;stroke-width:1.0;"/><line style="stroke:#181818;stroke-width:1.0;stroke-dasharray:2.0,2.0;" x1="850" x2="1867.5" y1="1033.8192" y2="1033.8192"/><text fill="#000000" font-family="sans-serif" font-size="13" lengthAdjust="spacing" textLength="41" x="857" y="1028.0707">invoke</text><polygon fill="#181818" points="2097,1062.6656,2107,1066.6656,2097,1070.6656,2101,1066.6656" style="stroke:#181818;stroke-width:1.0;"/><line style="stroke:#181818;stroke-width:1.0;stroke-dasharray:2.0,2.0;" x1="1878.5" x2="2103" y1="1066.6656" y2="1066.6656"/><text fill="#000000" font-family="sans-serif" font-size="13" lengthAdjust="spacing" textLength="101" x="1885.5" y="1060.9171">invokeJoinpoint</text><polygon fill="#181818" points="1889.5,1074.6656,1879.5,1078.6656,1889.5,1082.6656,1885.5,1078.6656" style="stroke:#181818;stroke-width:1.0;"/><line style="stroke:#181818;stroke-width:1.0;stroke-dasharray:2.0,2.0;" x1="1883.5" x2="2103" y1="1078.6656" y2="1078.6656"/><text fill="#000000" font-family="sans-serif" font-size="13" lengthAdjust="spacing" textLength="50" x="1895.5" y="1094.7636">proceed</text><polygon fill="#181818" points="2663,1128.3585,2673,1132.3585,2663,1136.3585,2667,1132.3585" style="stroke:#181818;stroke-width:1.0;"/><line style="stroke:#181818;stroke-width:1.0;stroke-dasharray:2.0,2.0;" x1="1873.5" x2="2669" y1="1132.3585" y2="1132.3585"/><text fill="#000000" font-family="sans-serif" font-size="13" lengthAdjust="spacing" textLength="50" x="1880.5" y="1126.6101">proceed</text><polygon fill="#181818" points="2504.5,1140.3585,2494.5,1144.3585,2504.5,1148.3585,2500.5,1144.3585" style="stroke:#181818;stroke-width:1.0;"/><line style="stroke:#181818;stroke-width:1.0;stroke-dasharray:2.0,2.0;" x1="2498.5" x2="2679" y1="1144.3585" y2="1144.3585"/><text fill="#000000" font-family="sans-serif" font-size="13" lengthAdjust="spacing" textLength="144" x="2510.5" y="1160.4565">proceedWithInvocation</text><polygon fill="#181818" points="2316.5,1173.205,2306.5,1177.205,2316.5,1181.205,2312.5,1177.205" style="stroke:#181818;stroke-width:1.0;"/><line style="stroke:#181818;stroke-width:1.0;stroke-dasharray:2.0,2.0;" x1="2310.5" x2="2487.5" y1="1177.205" y2="1177.205"/><text fill="#000000" font-family="sans-serif" font-size="13" lengthAdjust="spacing" textLength="154" x="2322.5" y="1193.303">invokeWithinTransaction</text><polygon fill="#181818" points="2125,1206.0514,2115,1210.0514,2125,1214.0514,2121,1210.0514" style="stroke:#181818;stroke-width:1.0;"/><line style="stroke:#181818;stroke-width:1.0;stroke-dasharray:2.0,2.0;" x1="2119" x2="2299.5" y1="1210.0514" y2="1210.0514"/><text fill="#000000" font-family="sans-serif" font-size="13" lengthAdjust="spacing" textLength="41" x="2131" y="1226.1494">invoke</text><polygon fill="#181818" points="1884.5,1238.8979,1874.5,1242.8979,1884.5,1246.8979,1880.5,1242.8979" style="stroke:#181818;stroke-width:1.0;"/><line style="stroke:#181818;stroke-width:1.0;stroke-dasharray:2.0,2.0;" x1="1878.5" x2="2108" y1="1242.8979" y2="1242.8979"/><text fill="#000000" font-family="sans-serif" font-size="13" lengthAdjust="spacing" textLength="50" x="1890.5" y="1258.9959">proceed</text><polygon fill="#181818" points="532,1271.7443,522,1275.7443,532,1279.7443,528,1275.7443" style="stroke:#181818;stroke-width:1.0;"/><line style="stroke:#181818;stroke-width:1.0;stroke-dasharray:2.0,2.0;" x1="526" x2="1867.5" y1="1275.7443" y2="1275.7443"/><text fill="#000000" font-family="sans-serif" font-size="13" lengthAdjust="spacing" textLength="50" x="538" y="1291.8423">proceed</text><polygon fill="#181818" points="198,1304.5908,188,1308.5908,198,1312.5908,194,1308.5908" style="stroke:#181818;stroke-width:1.0;"/><line style="stroke:#181818;stroke-width:1.0;stroke-dasharray:2.0,2.0;" x1="192" x2="505" y1="1308.5908" y2="1308.5908"/><text fill="#000000" font-family="sans-serif" font-size="13" lengthAdjust="spacing" textLength="56" x="204" y="1324.6888">intercept</text><polygon fill="#181818" points="1060.5,1358.2837,1070.5,1362.2837,1060.5,1366.2837,1064.5,1362.2837" style="stroke:#181818;stroke-width:1.0;"/><line style="stroke:#181818;stroke-width:1.0;stroke-dasharray:2.0,2.0;" x1="182" x2="1066.5" y1="1362.2837" y2="1362.2837"/><text fill="#000000" font-family="sans-serif" font-size="13" lengthAdjust="spacing" textLength="114" x="189" y="1356.5352">myControllerLogic</text><polygon fill="#181818" points="861,1370.2837,851,1374.2837,861,1378.2837,857,1374.2837" style="stroke:#181818;stroke-width:1.0;"/><line style="stroke:#181818;stroke-width:1.0;stroke-dasharray:2.0,2.0;" x1="855" x2="1066.5" y1="1374.2837" y2="1374.2837"/><text fill="#000000" font-family="sans-serif" font-size="13" lengthAdjust="spacing" textLength="41" x="867" y="1390.3817">invoke</text><polygon fill="#181818" points="744,1403.1302,734,1407.1302,744,1411.1302,740,1407.1302" style="stroke:#181818;stroke-width:1.0;"/><line style="stroke:#181818;stroke-width:1.0;stroke-dasharray:2.0,2.0;" x1="738" x2="834" y1="1407.1302" y2="1407.1302"/><text fill="#000000" font-family="sans-serif" font-size="13" lengthAdjust="spacing" textLength="41" x="750" y="1423.2282">invoke</text><polygon fill="#181818" points="527,1435.9766,517,1439.9766,527,1443.9766,523,1439.9766" style="stroke:#181818;stroke-width:1.0;"/><line style="stroke:#181818;stroke-width:1.0;stroke-dasharray:2.0,2.0;" x1="521" x2="717" y1="1439.9766" y2="1439.9766"/><text fill="#000000" font-family="sans-serif" font-size="13" lengthAdjust="spacing" textLength="68" x="533" y="1456.0746">access$000</text><polygon fill="#181818" points="1538,1489.6695,1548,1493.6695,1538,1497.6695,1542,1493.6695" style="stroke:#181818;stroke-width:1.0;"/><line style="stroke:#181818;stroke-width:1.0;stroke-dasharray:2.0,2.0;" x1="511" x2="1544" y1="1493.6695" y2="1493.6695"/><text fill="#000000" font-family="sans-serif" font-size="13" lengthAdjust="spacing" textLength="56" x="518" y="1487.9211">intercept</text><polygon fill="#181818" points="1330,1501.6695,1320,1505.6695,1330,1509.6695,1326,1505.6695" style="stroke:#181818;stroke-width:1.0;"/><line style="stroke:#181818;stroke-width:1.0;stroke-dasharray:2.0,2.0;" x1="1324" x2="1554" y1="1505.6695" y2="1505.6695"/><text fill="#000000" font-family="sans-serif" font-size="13" lengthAdjust="spacing" textLength="114" x="1336" y="1521.7675">myControllerLogic</text><polygon fill="#181818" points="1088.5,1534.516,1078.5,1538.516,1088.5,1542.516,1084.5,1538.516" style="stroke:#181818;stroke-width:1.0;"/><line style="stroke:#181818;stroke-width:1.0;stroke-dasharray:2.0,2.0;" x1="1082.5" x2="1313" y1="1538.516" y2="1538.516"/><text fill="#000000" font-family="sans-serif" font-size="13" lengthAdjust="spacing" textLength="149" x="1094.5" y="1554.614">successByBeanInjection</text><polygon fill="#181818" points="856,1567.3625,846,1571.3625,856,1575.3625,852,1571.3625" style="stroke:#181818;stroke-width:1.0;"/><line style="stroke:#181818;stroke-width:1.0;stroke-dasharray:2.0,2.0;" x1="850" x2="1071.5" y1="1571.3625" y2="1571.3625"/><text fill="#000000" font-family="sans-serif" font-size="13" lengthAdjust="spacing" textLength="41" x="862" y="1587.4604">invoke</text><polygon fill="#181818" points="734,1600.2089,724,1604.2089,734,1608.2089,730,1604.2089" style="stroke:#181818;stroke-width:1.0;"/><line style="stroke:#181818;stroke-width:1.0;stroke-dasharray:2.0,2.0;" x1="728" x2="839" y1="1604.2089" y2="1604.2089"/><text fill="#000000" font-family="sans-serif" font-size="13" lengthAdjust="spacing" textLength="41" x="740" y="1620.3069">invoke</text><polygon fill="#181818" points="522,1633.0554,512,1637.0554,522,1641.0554,518,1637.0554" style="stroke:#181818;stroke-width:1.0;"/><line style="stroke:#181818;stroke-width:1.0;stroke-dasharray:2.0,2.0;" x1="516" x2="717" y1="1637.0554" y2="1637.0554"/><text fill="#000000" font-family="sans-serif" font-size="13" lengthAdjust="spacing" textLength="68" x="528" y="1653.1534">access$000</text><polygon fill="#181818" points="188,1665.9018,178,1669.9018,188,1673.9018,184,1669.9018" style="stroke:#181818;stroke-width:1.0;"/><line style="stroke:#181818;stroke-width:1.0;stroke-dasharray:2.0,2.0;" x1="182" x2="505" y1="1669.9018" y2="1669.9018"/><text fill="#000000" font-family="sans-serif" font-size="13" lengthAdjust="spacing" textLength="56" x="194" y="1685.9998">intercept</text><!--MD5=[a5a738f214192b306cd67f504b5defda]
@startuml
skinparam responseMessageBelowArrow true
DemoControllerEnhancerBySpringCGLIBdf2ad0b7 -> DemoControllerEnhancerBySpringCGLIBdf2ad0b7: successByBeanInjection
activate DemoControllerEnhancerBySpringCGLIBdf2ad0b7
DemoControllerEnhancerBySpringCGLIBdf2ad0b7 -> CglibAopProxyDynamicAdvisedInterceptor: intercept
activate CglibAopProxyDynamicAdvisedInterceptor
CglibAopProxyDynamicAdvisedInterceptor -> CglibAopProxy: access$000
activate CglibAopProxy
CglibAopProxy -> CglibAopProxy: invokeMethod
activate CglibAopProxy
CglibAopProxy -> MethodProxy: invoke
activate MethodProxy
MethodProxy -> DemoControllerFastClassBySpringCGLIBcae03d3d: invoke
activate DemoControllerFastClassBySpringCGLIBcae03d3d
DemoControllerFastClassBySpringCGLIBcae03d3d -> DemoController: successByBeanInjection
activate DemoController
DemoController -> DemoControllerEnhancerBySpringCGLIBecae1b88: myControllerLogic
activate DemoControllerEnhancerBySpringCGLIBecae1b88
DemoControllerEnhancerBySpringCGLIBecae1b88 -> CglibAopProxyDynamicAdvisedInterceptor: intercept
activate CglibAopProxyDynamicAdvisedInterceptor
CglibAopProxyDynamicAdvisedInterceptor -> CglibAopProxy: access$000
activate CglibAopProxy
CglibAopProxy -> CglibAopProxy: invokeMethod
activate CglibAopProxy
CglibAopProxy -> MethodProxy: invoke
activate MethodProxy
MethodProxy -> DemoControllerFastClassBySpringCGLIBcae03d3d: invoke
activate DemoControllerFastClassBySpringCGLIBcae03d3d
DemoControllerFastClassBySpringCGLIBcae03d3d -> DemoControllerEnhancerBySpringCGLIBdf2ad0b7: myControllerLogic
activate DemoControllerEnhancerBySpringCGLIBdf2ad0b7
DemoControllerEnhancerBySpringCGLIBdf2ad0b7 -> CglibAopProxyDynamicAdvisedInterceptor: intercept
activate CglibAopProxyDynamicAdvisedInterceptor
CglibAopProxyDynamicAdvisedInterceptor -> CglibAopProxyCglibMethodInvocation: proceed
activate CglibAopProxyCglibMethodInvocation
CglibAopProxyCglibMethodInvocation -> ReflectiveMethodInvocation: proceed
activate ReflectiveMethodInvocation
ReflectiveMethodInvocation -> TransactionInterceptor: invoke
activate TransactionInterceptor
TransactionInterceptor -> TransactionAspectSupport: invokeWithinTransaction
activate TransactionAspectSupport
TransactionAspectSupport -> TransactionInterceptor1: proceedWithInvocation
activate TransactionInterceptor1
TransactionInterceptor1 -> CglibAopProxyCglibMethodInvocation: proceed
activate CglibAopProxyCglibMethodInvocation
CglibAopProxyCglibMethodInvocation -> ReflectiveMethodInvocation: proceed
activate ReflectiveMethodInvocation
ReflectiveMethodInvocation -> CglibAopProxyCglibMethodInvocation: invokeJoinpoint
activate CglibAopProxyCglibMethodInvocation
CglibAopProxyCglibMethodInvocation -> MethodProxy: invoke
activate MethodProxy
MethodProxy -> DemoControllerFastClassBySpringCGLIBcae03d3d: invoke
activate DemoControllerFastClassBySpringCGLIBcae03d3d
DemoControllerFastClassBySpringCGLIBcae03d3d -> DemoController: myControllerLogic
activate DemoController
DemoController - -> DemoControllerFastClassBySpringCGLIBcae03d3d: myControllerLogic
deactivate DemoController
DemoControllerFastClassBySpringCGLIBcae03d3d - -> MethodProxy: invoke
deactivate DemoControllerFastClassBySpringCGLIBcae03d3d
MethodProxy - -> CglibAopProxyCglibMethodInvocation: invoke
deactivate MethodProxy
CglibAopProxyCglibMethodInvocation - -> ReflectiveMethodInvocation: invokeJoinpoint
deactivate CglibAopProxyCglibMethodInvocation
ReflectiveMethodInvocation - -> CglibAopProxyCglibMethodInvocation: proceed
deactivate ReflectiveMethodInvocation
CglibAopProxyCglibMethodInvocation - -> TransactionInterceptor1: proceed
deactivate CglibAopProxyCglibMethodInvocation
TransactionInterceptor1 - -> TransactionAspectSupport: proceedWithInvocation
deactivate TransactionInterceptor1
TransactionAspectSupport - -> TransactionInterceptor: invokeWithinTransaction
deactivate TransactionAspectSupport
TransactionInterceptor - -> ReflectiveMethodInvocation: invoke
deactivate TransactionInterceptor
ReflectiveMethodInvocation - -> CglibAopProxyCglibMethodInvocation: proceed
deactivate ReflectiveMethodInvocation
CglibAopProxyCglibMethodInvocation - -> CglibAopProxyDynamicAdvisedInterceptor: proceed
deactivate CglibAopProxyCglibMethodInvocation
CglibAopProxyDynamicAdvisedInterceptor - -> DemoControllerEnhancerBySpringCGLIBdf2ad0b7: intercept
deactivate CglibAopProxyDynamicAdvisedInterceptor
DemoControllerEnhancerBySpringCGLIBdf2ad0b7 - -> DemoControllerFastClassBySpringCGLIBcae03d3d: myControllerLogic
deactivate DemoControllerEnhancerBySpringCGLIBdf2ad0b7
DemoControllerFastClassBySpringCGLIBcae03d3d - -> MethodProxy: invoke
deactivate DemoControllerFastClassBySpringCGLIBcae03d3d
MethodProxy - -> CglibAopProxy: invoke
deactivate MethodProxy
deactivate CglibAopProxy
CglibAopProxy - -> CglibAopProxyDynamicAdvisedInterceptor: access$000
deactivate CglibAopProxy
CglibAopProxyDynamicAdvisedInterceptor - -> DemoControllerEnhancerBySpringCGLIBecae1b88: intercept
deactivate CglibAopProxyDynamicAdvisedInterceptor
DemoControllerEnhancerBySpringCGLIBecae1b88 - -> DemoController: myControllerLogic
deactivate DemoControllerEnhancerBySpringCGLIBecae1b88
DemoController - -> DemoControllerFastClassBySpringCGLIBcae03d3d: successByBeanInjection
deactivate DemoController
DemoControllerFastClassBySpringCGLIBcae03d3d - -> MethodProxy: invoke
deactivate DemoControllerFastClassBySpringCGLIBcae03d3d
MethodProxy - -> CglibAopProxy: invoke
deactivate MethodProxy
deactivate CglibAopProxy
CglibAopProxy - -> CglibAopProxyDynamicAdvisedInterceptor: access$000
deactivate CglibAopProxy
CglibAopProxyDynamicAdvisedInterceptor - -> DemoControllerEnhancerBySpringCGLIBdf2ad0b7: intercept
deactivate CglibAopProxyDynamicAdvisedInterceptor
deactivate DemoControllerEnhancerBySpringCGLIBdf2ad0b7
@enduml

PlantUML version 1.2022.13(Sat Nov 19 21:22:17 CST 2022)
(GPL source distribution)
Java Runtime: OpenJDK Runtime Environment
JVM: OpenJDK 64-Bit Server VM
Default Encoding: UTF-8
Language: zh
Country: CN
--></g></svg>