<?xml version="1.0" encoding="utf-8" standalone="no"?>
<!DOCTYPE svg PUBLIC "-//W3C//DTD SVG 1.1//EN"
  "http://www.w3.org/Graphics/SVG/1.1/DTD/svg11.dtd">
<svg xmlns:xlink="http://www.w3.org/1999/xlink" width="1008pt" height="576pt" viewBox="0 0 1008 576" xmlns="http://www.w3.org/2000/svg" version="1.1">
 <metadata>
  <rdf:RDF xmlns:dc="http://purl.org/dc/elements/1.1/" xmlns:cc="http://creativecommons.org/ns#" xmlns:rdf="http://www.w3.org/1999/02/22-rdf-syntax-ns#">
   <cc:Work>
    <dc:type rdf:resource="http://purl.org/dc/dcmitype/StillImage"/>
    <dc:date>2025-06-19T16:11:24.167768</dc:date>
    <dc:format>image/svg+xml</dc:format>
    <dc:creator>
     <cc:Agent>
      <dc:title>Matplotlib v3.10.0, https://matplotlib.org/</dc:title>
     </cc:Agent>
    </dc:creator>
   </cc:Work>
  </rdf:RDF>
 </metadata>
 <defs>
  <style type="text/css">*{stroke-linejoin: round; stroke-linecap: butt}</style>
 </defs>
 <g id="figure_1">
  <g id="patch_1">
   <path d="M 0 576 
L 1008 576 
L 1008 0 
L 0 0 
z
" style="fill: #ffffff"/>
  </g>
  <g id="axes_1">
   <g id="patch_2">
    <path d="M 53.48 510.633709 
L 980.096855 510.633709 
L 980.096855 26.80125 
L 53.48 26.80125 
z
" style="fill: #ffffff"/>
   </g>
   <g id="matplotlib.axis_1">
    <g id="xtick_1">
     <g id="line2d_1">
      <defs>
       <path id="m2bcdde5389" d="M 0 0 
L 0 3.5 
" style="stroke: #000000; stroke-width: 0.8"/>
      </defs>
      <g>
       <use xlink:href="#m2bcdde5389" x="137.717896" y="510.633709" style="stroke: #000000; stroke-width: 0.8"/>
      </g>
     </g>
     <g id="text_1">
      <!-- 28 01:30 -->
      <g transform="translate(125.783259 550.216969) rotate(-45) scale(0.1 -0.1)">
       <defs>
        <path id="ArialUnicodeMS-32" d="M 3231 0 
L 197 0 
Q 197 388 467 784 
Q 738 1181 1478 1778 
Q 1931 2141 2287 2539 
Q 2644 2938 2644 3341 
Q 2644 3688 2398 3914 
Q 2153 4141 1778 4141 
Q 1400 4141 1144 3908 
Q 888 3675 884 3213 
L 306 3278 
Q 359 3922 764 4262 
Q 1169 4603 1791 4603 
Q 2466 4603 2842 4229 
Q 3219 3856 3219 3328 
Q 3219 2888 2901 2436 
Q 2584 1984 1638 1228 
Q 1141 831 978 544 
L 3231 544 
L 3231 0 
z
" transform="scale(0.015625)"/>
        <path id="ArialUnicodeMS-38" d="M 2425 2478 
Q 3284 2203 3284 1306 
Q 3284 716 2862 319 
Q 2441 -78 1778 -78 
Q 1109 -78 689 322 
Q 269 722 269 1325 
Q 269 1759 505 2084 
Q 741 2409 1141 2478 
L 1141 2491 
Q 453 2703 453 3419 
Q 453 3925 815 4264 
Q 1178 4603 1766 4603 
Q 2363 4603 2730 4253 
Q 3097 3903 3097 3406 
Q 3097 2731 2425 2491 
L 2425 2478 
z
M 1778 2700 
Q 2094 2700 2308 2901 
Q 2522 3103 2522 3406 
Q 2522 3716 2305 3928 
Q 2088 4141 1772 4141 
Q 1450 4141 1240 3931 
Q 1031 3722 1031 3438 
Q 1031 3097 1247 2898 
Q 1463 2700 1778 2700 
z
M 1778 384 
Q 2175 384 2440 640 
Q 2706 897 2706 1306 
Q 2706 1716 2432 1978 
Q 2159 2241 1766 2241 
Q 1356 2241 1100 1970 
Q 844 1700 844 1319 
Q 844 922 1108 653 
Q 1372 384 1778 384 
z
" transform="scale(0.015625)"/>
        <path id="ArialUnicodeMS-20" transform="scale(0.015625)"/>
        <path id="ArialUnicodeMS-30" d="M 1778 4603 
Q 3272 4603 3272 2259 
Q 3272 1075 2886 498 
Q 2500 -78 1778 -78 
Q 288 -78 288 2259 
Q 288 3444 673 4023 
Q 1059 4603 1778 4603 
z
M 1778 384 
Q 2231 384 2462 823 
Q 2694 1263 2694 2259 
Q 2694 2953 2592 3351 
Q 2491 3750 2286 3945 
Q 2081 4141 1772 4141 
Q 1319 4141 1091 3694 
Q 863 3247 863 2259 
Q 863 1575 966 1175 
Q 1069 775 1272 579 
Q 1475 384 1778 384 
z
" transform="scale(0.015625)"/>
        <path id="ArialUnicodeMS-31" d="M 2400 0 
L 1838 0 
L 1838 3584 
Q 1416 3184 709 2906 
L 709 3450 
Q 1681 3916 2034 4603 
L 2400 4603 
L 2400 0 
z
" transform="scale(0.015625)"/>
        <path id="ArialUnicodeMS-3a" d="M 1216 2675 
L 575 2675 
L 575 3316 
L 1216 3316 
L 1216 2675 
z
M 1216 0 
L 575 0 
L 575 641 
L 1216 641 
L 1216 0 
z
" transform="scale(0.015625)"/>
        <path id="ArialUnicodeMS-33" d="M 2425 2478 
Q 2850 2397 3067 2067 
Q 3284 1738 3284 1350 
Q 3284 725 2829 323 
Q 2375 -78 1741 -78 
Q 1134 -78 740 275 
Q 347 628 281 1209 
L 844 1288 
Q 928 834 1151 609 
Q 1375 384 1741 384 
Q 2134 384 2407 661 
Q 2681 938 2681 1338 
Q 2681 1722 2432 1975 
Q 2184 2228 1784 2228 
Q 1622 2228 1388 2169 
L 1453 2663 
Q 1678 2663 1809 2684 
Q 1941 2706 2103 2790 
Q 2266 2875 2372 3033 
Q 2478 3191 2478 3425 
Q 2478 3766 2251 3953 
Q 2025 4141 1728 4141 
Q 1388 4141 1173 3925 
Q 959 3709 903 3309 
L 341 3413 
Q 450 4009 823 4306 
Q 1197 4603 1716 4603 
Q 2288 4603 2670 4258 
Q 3053 3913 3053 3413 
Q 3053 2772 2425 2491 
L 2425 2478 
z
" transform="scale(0.015625)"/>
       </defs>
       <use xlink:href="#ArialUnicodeMS-32"/>
       <use xlink:href="#ArialUnicodeMS-38" transform="translate(55.615234 0)"/>
       <use xlink:href="#ArialUnicodeMS-20" transform="translate(111.230469 0)"/>
       <use xlink:href="#ArialUnicodeMS-30" transform="translate(139.013672 0)"/>
       <use xlink:href="#ArialUnicodeMS-31" transform="translate(194.628906 0)"/>
       <use xlink:href="#ArialUnicodeMS-3a" transform="translate(250.244141 0)"/>
       <use xlink:href="#ArialUnicodeMS-33" transform="translate(278.027344 0)"/>
       <use xlink:href="#ArialUnicodeMS-30" transform="translate(333.642578 0)"/>
      </g>
     </g>
    </g>
    <g id="xtick_2">
     <g id="line2d_2">
      <g>
       <use xlink:href="#m2bcdde5389" x="243.015266" y="510.633709" style="stroke: #000000; stroke-width: 0.8"/>
      </g>
     </g>
     <g id="text_2">
      <!-- 28 01:45 -->
      <g transform="translate(231.080629 550.216969) rotate(-45) scale(0.1 -0.1)">
       <defs>
        <path id="ArialUnicodeMS-34" d="M 3263 1094 
L 2644 1094 
L 2644 0 
L 2081 0 
L 2081 1094 
L 97 1094 
L 97 1613 
L 2181 4581 
L 2644 4581 
L 2644 1613 
L 3263 1613 
L 3263 1094 
z
M 2081 1613 
L 2081 3681 
L 2069 3681 
L 647 1613 
L 2081 1613 
z
" transform="scale(0.015625)"/>
        <path id="ArialUnicodeMS-35" d="M 1013 2753 
Q 1431 3041 1881 3041 
Q 2453 3041 2878 2636 
Q 3303 2231 3303 1556 
Q 3303 875 2872 398 
Q 2441 -78 1741 -78 
Q 1169 -78 750 245 
Q 331 569 269 1203 
L 856 1247 
Q 928 813 1162 598 
Q 1397 384 1741 384 
Q 2169 384 2434 707 
Q 2700 1031 2700 1503 
Q 2700 1984 2428 2262 
Q 2156 2541 1728 2541 
Q 1188 2541 897 2100 
L 366 2163 
L 813 4519 
L 3084 4519 
L 3084 3975 
L 1259 3975 
L 1013 2753 
z
" transform="scale(0.015625)"/>
       </defs>
       <use xlink:href="#ArialUnicodeMS-32"/>
       <use xlink:href="#ArialUnicodeMS-38" transform="translate(55.615234 0)"/>
       <use xlink:href="#ArialUnicodeMS-20" transform="translate(111.230469 0)"/>
       <use xlink:href="#ArialUnicodeMS-30" transform="translate(139.013672 0)"/>
       <use xlink:href="#ArialUnicodeMS-31" transform="translate(194.628906 0)"/>
       <use xlink:href="#ArialUnicodeMS-3a" transform="translate(250.244141 0)"/>
       <use xlink:href="#ArialUnicodeMS-34" transform="translate(278.027344 0)"/>
       <use xlink:href="#ArialUnicodeMS-35" transform="translate(333.642578 0)"/>
      </g>
     </g>
    </g>
    <g id="xtick_3">
     <g id="line2d_3">
      <g>
       <use xlink:href="#m2bcdde5389" x="348.312636" y="510.633709" style="stroke: #000000; stroke-width: 0.8"/>
      </g>
     </g>
     <g id="text_3">
      <!-- 28 02:00 -->
      <g transform="translate(336.377999 550.216969) rotate(-45) scale(0.1 -0.1)">
       <use xlink:href="#ArialUnicodeMS-32"/>
       <use xlink:href="#ArialUnicodeMS-38" transform="translate(55.615234 0)"/>
       <use xlink:href="#ArialUnicodeMS-20" transform="translate(111.230469 0)"/>
       <use xlink:href="#ArialUnicodeMS-30" transform="translate(139.013672 0)"/>
       <use xlink:href="#ArialUnicodeMS-32" transform="translate(194.628906 0)"/>
       <use xlink:href="#ArialUnicodeMS-3a" transform="translate(250.244141 0)"/>
       <use xlink:href="#ArialUnicodeMS-30" transform="translate(278.027344 0)"/>
       <use xlink:href="#ArialUnicodeMS-30" transform="translate(333.642578 0)"/>
      </g>
     </g>
    </g>
    <g id="xtick_4">
     <g id="line2d_4">
      <g>
       <use xlink:href="#m2bcdde5389" x="453.610005" y="510.633709" style="stroke: #000000; stroke-width: 0.8"/>
      </g>
     </g>
     <g id="text_4">
      <!-- 28 02:15 -->
      <g transform="translate(441.675369 550.216969) rotate(-45) scale(0.1 -0.1)">
       <use xlink:href="#ArialUnicodeMS-32"/>
       <use xlink:href="#ArialUnicodeMS-38" transform="translate(55.615234 0)"/>
       <use xlink:href="#ArialUnicodeMS-20" transform="translate(111.230469 0)"/>
       <use xlink:href="#ArialUnicodeMS-30" transform="translate(139.013672 0)"/>
       <use xlink:href="#ArialUnicodeMS-32" transform="translate(194.628906 0)"/>
       <use xlink:href="#ArialUnicodeMS-3a" transform="translate(250.244141 0)"/>
       <use xlink:href="#ArialUnicodeMS-31" transform="translate(278.027344 0)"/>
       <use xlink:href="#ArialUnicodeMS-35" transform="translate(333.642578 0)"/>
      </g>
     </g>
    </g>
    <g id="xtick_5">
     <g id="line2d_5">
      <g>
       <use xlink:href="#m2bcdde5389" x="558.907375" y="510.633709" style="stroke: #000000; stroke-width: 0.8"/>
      </g>
     </g>
     <g id="text_5">
      <!-- 28 02:30 -->
      <g transform="translate(546.972739 550.216969) rotate(-45) scale(0.1 -0.1)">
       <use xlink:href="#ArialUnicodeMS-32"/>
       <use xlink:href="#ArialUnicodeMS-38" transform="translate(55.615234 0)"/>
       <use xlink:href="#ArialUnicodeMS-20" transform="translate(111.230469 0)"/>
       <use xlink:href="#ArialUnicodeMS-30" transform="translate(139.013672 0)"/>
       <use xlink:href="#ArialUnicodeMS-32" transform="translate(194.628906 0)"/>
       <use xlink:href="#ArialUnicodeMS-3a" transform="translate(250.244141 0)"/>
       <use xlink:href="#ArialUnicodeMS-33" transform="translate(278.027344 0)"/>
       <use xlink:href="#ArialUnicodeMS-30" transform="translate(333.642578 0)"/>
      </g>
     </g>
    </g>
    <g id="xtick_6">
     <g id="line2d_6">
      <g>
       <use xlink:href="#m2bcdde5389" x="664.204745" y="510.633709" style="stroke: #000000; stroke-width: 0.8"/>
      </g>
     </g>
     <g id="text_6">
      <!-- 28 02:45 -->
      <g transform="translate(652.270108 550.216969) rotate(-45) scale(0.1 -0.1)">
       <use xlink:href="#ArialUnicodeMS-32"/>
       <use xlink:href="#ArialUnicodeMS-38" transform="translate(55.615234 0)"/>
       <use xlink:href="#ArialUnicodeMS-20" transform="translate(111.230469 0)"/>
       <use xlink:href="#ArialUnicodeMS-30" transform="translate(139.013672 0)"/>
       <use xlink:href="#ArialUnicodeMS-32" transform="translate(194.628906 0)"/>
       <use xlink:href="#ArialUnicodeMS-3a" transform="translate(250.244141 0)"/>
       <use xlink:href="#ArialUnicodeMS-34" transform="translate(278.027344 0)"/>
       <use xlink:href="#ArialUnicodeMS-35" transform="translate(333.642578 0)"/>
      </g>
     </g>
    </g>
    <g id="xtick_7">
     <g id="line2d_7">
      <g>
       <use xlink:href="#m2bcdde5389" x="769.502115" y="510.633709" style="stroke: #000000; stroke-width: 0.8"/>
      </g>
     </g>
     <g id="text_7">
      <!-- 28 03:00 -->
      <g transform="translate(757.567478 550.216969) rotate(-45) scale(0.1 -0.1)">
       <use xlink:href="#ArialUnicodeMS-32"/>
       <use xlink:href="#ArialUnicodeMS-38" transform="translate(55.615234 0)"/>
       <use xlink:href="#ArialUnicodeMS-20" transform="translate(111.230469 0)"/>
       <use xlink:href="#ArialUnicodeMS-30" transform="translate(139.013672 0)"/>
       <use xlink:href="#ArialUnicodeMS-33" transform="translate(194.628906 0)"/>
       <use xlink:href="#ArialUnicodeMS-3a" transform="translate(250.244141 0)"/>
       <use xlink:href="#ArialUnicodeMS-30" transform="translate(278.027344 0)"/>
       <use xlink:href="#ArialUnicodeMS-30" transform="translate(333.642578 0)"/>
      </g>
     </g>
    </g>
    <g id="xtick_8">
     <g id="line2d_8">
      <g>
       <use xlink:href="#m2bcdde5389" x="874.799485" y="510.633709" style="stroke: #000000; stroke-width: 0.8"/>
      </g>
     </g>
     <g id="text_8">
      <!-- 28 03:15 -->
      <g transform="translate(862.864848 550.216969) rotate(-45) scale(0.1 -0.1)">
       <use xlink:href="#ArialUnicodeMS-32"/>
       <use xlink:href="#ArialUnicodeMS-38" transform="translate(55.615234 0)"/>
       <use xlink:href="#ArialUnicodeMS-20" transform="translate(111.230469 0)"/>
       <use xlink:href="#ArialUnicodeMS-30" transform="translate(139.013672 0)"/>
       <use xlink:href="#ArialUnicodeMS-33" transform="translate(194.628906 0)"/>
       <use xlink:href="#ArialUnicodeMS-3a" transform="translate(250.244141 0)"/>
       <use xlink:href="#ArialUnicodeMS-31" transform="translate(278.027344 0)"/>
       <use xlink:href="#ArialUnicodeMS-35" transform="translate(333.642578 0)"/>
      </g>
     </g>
    </g>
    <g id="xtick_9">
     <g id="line2d_9">
      <g>
       <use xlink:href="#m2bcdde5389" x="980.096855" y="510.633709" style="stroke: #000000; stroke-width: 0.8"/>
      </g>
     </g>
     <g id="text_9">
      <!-- 28 03:30 -->
      <g transform="translate(968.162218 550.216969) rotate(-45) scale(0.1 -0.1)">
       <use xlink:href="#ArialUnicodeMS-32"/>
       <use xlink:href="#ArialUnicodeMS-38" transform="translate(55.615234 0)"/>
       <use xlink:href="#ArialUnicodeMS-20" transform="translate(111.230469 0)"/>
       <use xlink:href="#ArialUnicodeMS-30" transform="translate(139.013672 0)"/>
       <use xlink:href="#ArialUnicodeMS-33" transform="translate(194.628906 0)"/>
       <use xlink:href="#ArialUnicodeMS-3a" transform="translate(250.244141 0)"/>
       <use xlink:href="#ArialUnicodeMS-33" transform="translate(278.027344 0)"/>
       <use xlink:href="#ArialUnicodeMS-30" transform="translate(333.642578 0)"/>
      </g>
     </g>
    </g>
    <g id="text_10">
     <!-- 时间 -->
     <g transform="translate(506.788427 562.783471) scale(0.1 -0.1)">
      <defs>
       <path id="ArialUnicodeMS-65f6" d="M 5931 3481 
L 5259 3481 
L 5259 72 
Q 5259 -122 5142 -259 
Q 5025 -397 4863 -397 
L 4281 -397 
L 4097 122 
L 4672 78 
Q 4775 66 4775 191 
L 4775 3481 
L 2784 3481 
L 2784 3950 
L 4775 3950 
L 4775 5306 
L 5259 5306 
L 5259 3950 
L 5931 3950 
L 5931 3481 
z
M 2463 97 
L 1978 97 
L 1978 569 
L 1147 569 
L 1147 97 
L 659 97 
L 659 4313 
L 2463 4313 
L 2463 97 
z
M 1978 2675 
L 1978 3847 
L 1147 3847 
L 1147 2675 
L 1978 2675 
z
M 1978 1038 
L 1978 2209 
L 1147 2209 
L 1147 1038 
L 1978 1038 
z
M 4306 1575 
L 3903 1300 
Q 3594 2103 2888 2725 
L 3272 2994 
Q 3997 2375 4306 1575 
z
" transform="scale(0.015625)"/>
       <path id="ArialUnicodeMS-95f4" d="M 2463 4313 
L 2088 4006 
Q 1600 4669 1094 4984 
L 1484 5247 
Q 2044 4888 2463 4313 
z
M 5497 178 
Q 5497 -50 5353 -181 
Q 5209 -313 4853 -313 
Q 4753 -313 4506 -300 
L 4366 147 
Q 4631 106 4806 106 
Q 4991 106 5002 142 
Q 5013 178 5013 275 
L 5013 4453 
L 2841 4453 
L 2841 4922 
L 5497 4922 
L 5497 178 
z
M 1125 -384 
L 641 -384 
L 641 4197 
L 1125 4197 
L 1125 -384 
z
M 4306 481 
L 3822 481 
L 3822 813 
L 2375 813 
L 2375 481 
L 1888 481 
L 1888 3669 
L 4306 3669 
L 4306 481 
z
M 3822 2559 
L 3822 3200 
L 2375 3200 
L 2375 2559 
L 3822 2559 
z
M 3822 1281 
L 3822 2094 
L 2375 2094 
L 2375 1281 
L 3822 1281 
z
" transform="scale(0.015625)"/>
      </defs>
      <use xlink:href="#ArialUnicodeMS-65f6"/>
      <use xlink:href="#ArialUnicodeMS-95f4" transform="translate(100 0)"/>
     </g>
    </g>
   </g>
   <g id="matplotlib.axis_2">
    <g id="ytick_1">
     <g id="line2d_10">
      <defs>
       <path id="m79fdca4dc4" d="M 0 0 
L -3.5 0 
" style="stroke: #000000; stroke-width: 0.8"/>
      </defs>
      <g>
       <use xlink:href="#m79fdca4dc4" x="53.48" y="510.633709" style="stroke: #000000; stroke-width: 0.8"/>
      </g>
     </g>
     <g id="text_11">
      <!-- 0 -->
      <g transform="translate(40.919062 514.212616) scale(0.1 -0.1)">
       <use xlink:href="#ArialUnicodeMS-30"/>
      </g>
     </g>
    </g>
    <g id="ytick_2">
     <g id="line2d_11">
      <g>
       <use xlink:href="#m79fdca4dc4" x="53.48" y="456.874547" style="stroke: #000000; stroke-width: 0.8"/>
      </g>
     </g>
     <g id="text_12">
      <!-- 1000 -->
      <g transform="translate(24.23625 460.453454) scale(0.1 -0.1)">
       <use xlink:href="#ArialUnicodeMS-31"/>
       <use xlink:href="#ArialUnicodeMS-30" transform="translate(55.615234 0)"/>
       <use xlink:href="#ArialUnicodeMS-30" transform="translate(111.230469 0)"/>
       <use xlink:href="#ArialUnicodeMS-30" transform="translate(166.845703 0)"/>
      </g>
     </g>
    </g>
    <g id="ytick_3">
     <g id="line2d_12">
      <g>
       <use xlink:href="#m79fdca4dc4" x="53.48" y="403.115385" style="stroke: #000000; stroke-width: 0.8"/>
      </g>
     </g>
     <g id="text_13">
      <!-- 2000 -->
      <g transform="translate(24.23625 406.694291) scale(0.1 -0.1)">
       <use xlink:href="#ArialUnicodeMS-32"/>
       <use xlink:href="#ArialUnicodeMS-30" transform="translate(55.615234 0)"/>
       <use xlink:href="#ArialUnicodeMS-30" transform="translate(111.230469 0)"/>
       <use xlink:href="#ArialUnicodeMS-30" transform="translate(166.845703 0)"/>
      </g>
     </g>
    </g>
    <g id="ytick_4">
     <g id="line2d_13">
      <g>
       <use xlink:href="#m79fdca4dc4" x="53.48" y="349.356223" style="stroke: #000000; stroke-width: 0.8"/>
      </g>
     </g>
     <g id="text_14">
      <!-- 3000 -->
      <g transform="translate(24.23625 352.935129) scale(0.1 -0.1)">
       <use xlink:href="#ArialUnicodeMS-33"/>
       <use xlink:href="#ArialUnicodeMS-30" transform="translate(55.615234 0)"/>
       <use xlink:href="#ArialUnicodeMS-30" transform="translate(111.230469 0)"/>
       <use xlink:href="#ArialUnicodeMS-30" transform="translate(166.845703 0)"/>
      </g>
     </g>
    </g>
    <g id="ytick_5">
     <g id="line2d_14">
      <g>
       <use xlink:href="#m79fdca4dc4" x="53.48" y="295.597061" style="stroke: #000000; stroke-width: 0.8"/>
      </g>
     </g>
     <g id="text_15">
      <!-- 4000 -->
      <g transform="translate(24.23625 299.175967) scale(0.1 -0.1)">
       <use xlink:href="#ArialUnicodeMS-34"/>
       <use xlink:href="#ArialUnicodeMS-30" transform="translate(55.615234 0)"/>
       <use xlink:href="#ArialUnicodeMS-30" transform="translate(111.230469 0)"/>
       <use xlink:href="#ArialUnicodeMS-30" transform="translate(166.845703 0)"/>
      </g>
     </g>
    </g>
    <g id="ytick_6">
     <g id="line2d_15">
      <g>
       <use xlink:href="#m79fdca4dc4" x="53.48" y="241.837899" style="stroke: #000000; stroke-width: 0.8"/>
      </g>
     </g>
     <g id="text_16">
      <!-- 5000 -->
      <g transform="translate(24.23625 245.416805) scale(0.1 -0.1)">
       <use xlink:href="#ArialUnicodeMS-35"/>
       <use xlink:href="#ArialUnicodeMS-30" transform="translate(55.615234 0)"/>
       <use xlink:href="#ArialUnicodeMS-30" transform="translate(111.230469 0)"/>
       <use xlink:href="#ArialUnicodeMS-30" transform="translate(166.845703 0)"/>
      </g>
     </g>
    </g>
    <g id="ytick_7">
     <g id="line2d_16">
      <g>
       <use xlink:href="#m79fdca4dc4" x="53.48" y="188.078736" style="stroke: #000000; stroke-width: 0.8"/>
      </g>
     </g>
     <g id="text_17">
      <!-- 6000 -->
      <g transform="translate(24.23625 191.657643) scale(0.1 -0.1)">
       <defs>
        <path id="ArialUnicodeMS-36" d="M 838 2363 
Q 1225 2969 1941 2969 
Q 2503 2969 2897 2553 
Q 3291 2138 3291 1491 
Q 3291 838 2898 380 
Q 2506 -78 1856 -78 
Q 1197 -78 733 409 
Q 269 897 269 2144 
Q 269 3369 689 3986 
Q 1109 4603 1906 4603 
Q 2422 4603 2778 4315 
Q 3134 4028 3213 3463 
L 2650 3413 
Q 2497 4141 1875 4141 
Q 1444 4141 1134 3712 
Q 825 3284 825 2363 
L 838 2363 
z
M 1844 384 
Q 2231 384 2472 696 
Q 2713 1009 2713 1453 
Q 2713 1897 2472 2187 
Q 2231 2478 1825 2478 
Q 1453 2478 1184 2204 
Q 916 1931 916 1484 
Q 916 1028 1180 706 
Q 1444 384 1844 384 
z
" transform="scale(0.015625)"/>
       </defs>
       <use xlink:href="#ArialUnicodeMS-36"/>
       <use xlink:href="#ArialUnicodeMS-30" transform="translate(55.615234 0)"/>
       <use xlink:href="#ArialUnicodeMS-30" transform="translate(111.230469 0)"/>
       <use xlink:href="#ArialUnicodeMS-30" transform="translate(166.845703 0)"/>
      </g>
     </g>
    </g>
    <g id="ytick_8">
     <g id="line2d_17">
      <g>
       <use xlink:href="#m79fdca4dc4" x="53.48" y="134.319574" style="stroke: #000000; stroke-width: 0.8"/>
      </g>
     </g>
     <g id="text_18">
      <!-- 7000 -->
      <g transform="translate(24.23625 137.898481) scale(0.1 -0.1)">
       <defs>
        <path id="ArialUnicodeMS-37" d="M 3272 4084 
Q 2597 3344 2103 2253 
Q 1609 1163 1522 0 
L 947 0 
Q 969 934 1408 2051 
Q 1847 3169 2547 3975 
L 306 3975 
L 306 4519 
L 3272 4519 
L 3272 4084 
z
" transform="scale(0.015625)"/>
       </defs>
       <use xlink:href="#ArialUnicodeMS-37"/>
       <use xlink:href="#ArialUnicodeMS-30" transform="translate(55.615234 0)"/>
       <use xlink:href="#ArialUnicodeMS-30" transform="translate(111.230469 0)"/>
       <use xlink:href="#ArialUnicodeMS-30" transform="translate(166.845703 0)"/>
      </g>
     </g>
    </g>
    <g id="ytick_9">
     <g id="line2d_18">
      <g>
       <use xlink:href="#m79fdca4dc4" x="53.48" y="80.560412" style="stroke: #000000; stroke-width: 0.8"/>
      </g>
     </g>
     <g id="text_19">
      <!-- 8000 -->
      <g transform="translate(24.23625 84.139318) scale(0.1 -0.1)">
       <use xlink:href="#ArialUnicodeMS-38"/>
       <use xlink:href="#ArialUnicodeMS-30" transform="translate(55.615234 0)"/>
       <use xlink:href="#ArialUnicodeMS-30" transform="translate(111.230469 0)"/>
       <use xlink:href="#ArialUnicodeMS-30" transform="translate(166.845703 0)"/>
      </g>
     </g>
    </g>
    <g id="ytick_10">
     <g id="line2d_19">
      <g>
       <use xlink:href="#m79fdca4dc4" x="53.48" y="26.80125" style="stroke: #000000; stroke-width: 0.8"/>
      </g>
     </g>
     <g id="text_20">
      <!-- 9000 -->
      <g transform="translate(24.23625 30.380156) scale(0.1 -0.1)">
       <defs>
        <path id="ArialUnicodeMS-39" d="M 2713 2156 
Q 2547 1888 2258 1722 
Q 1969 1556 1631 1556 
Q 1066 1556 670 1970 
Q 275 2384 275 3053 
Q 275 3734 678 4168 
Q 1081 4603 1716 4603 
Q 2353 4603 2818 4106 
Q 3284 3609 3284 2388 
Q 3284 1147 2859 534 
Q 2434 -78 1644 -78 
Q 1128 -78 781 205 
Q 434 488 359 1063 
L 897 1106 
Q 1025 384 1656 384 
Q 2175 384 2450 857 
Q 2725 1331 2725 2156 
L 2713 2156 
z
M 1766 2047 
Q 2178 2047 2420 2339 
Q 2663 2631 2663 3078 
Q 2663 3531 2414 3836 
Q 2166 4141 1778 4141 
Q 1388 4141 1119 3817 
Q 850 3494 850 3034 
Q 850 2600 1114 2323 
Q 1378 2047 1766 2047 
z
" transform="scale(0.015625)"/>
       </defs>
       <use xlink:href="#ArialUnicodeMS-39"/>
       <use xlink:href="#ArialUnicodeMS-30" transform="translate(55.615234 0)"/>
       <use xlink:href="#ArialUnicodeMS-30" transform="translate(111.230469 0)"/>
       <use xlink:href="#ArialUnicodeMS-30" transform="translate(166.845703 0)"/>
      </g>
     </g>
    </g>
    <g id="text_21">
     <!-- 值 -->
     <g transform="translate(18.244062 273.71748) rotate(-90) scale(0.1 -0.1)">
      <defs>
       <path id="ArialUnicodeMS-503c" d="M 6034 -172 
L 1791 -172 
L 1791 294 
L 2344 294 
L 2344 3853 
L 3425 3853 
Q 3544 4109 3609 4341 
L 1925 4341 
L 1919 4672 
Q 1841 4369 1691 3981 
L 1544 3622 
L 1544 -434 
L 1056 -434 
L 1056 2753 
Q 859 2466 634 2241 
L 238 2516 
Q 1222 3619 1588 5325 
L 2028 5172 
Q 2009 5038 1953 4806 
L 3731 4806 
Q 3772 4997 3781 5338 
L 4275 5253 
Q 4275 5013 4225 4806 
L 5813 4806 
L 5813 4341 
L 4134 4341 
Q 4091 4188 3956 3853 
L 5409 3853 
L 5409 294 
L 6034 294 
L 6034 -172 
z
M 4922 2994 
L 4922 3384 
L 2828 3384 
L 2828 2994 
L 4922 2994 
z
M 4922 2138 
L 4922 2584 
L 2828 2584 
L 2828 2138 
L 4922 2138 
z
M 4922 1241 
L 4922 1716 
L 2828 1716 
L 2828 1241 
L 4922 1241 
z
M 4922 294 
L 4922 825 
L 2828 825 
L 2828 294 
L 4922 294 
z
" transform="scale(0.015625)"/>
      </defs>
      <use xlink:href="#ArialUnicodeMS-503c"/>
     </g>
    </g>
   </g>
   <g id="line2d_20">
    <path d="M 95.598948 370.39014 
L 102.618773 370.397882 
L 109.638597 370.392237 
L 116.658422 370.39858 
L 123.678246 370.388259 
L 130.698071 370.383044 
L 137.717896 370.394602 
L 144.73772 370.39143 
L 151.757545 370.392667 
L 158.77737 370.394764 
L 165.797194 370.378367 
L 172.817019 370.379926 
L 179.836844 370.387291 
L 186.856668 370.382506 
L 193.876493 370.384334 
L 200.896318 370.390033 
L 207.916142 370.388743 
L 214.935967 370.387721 
L 221.955792 370.38713 
L 228.975616 370.387022 
L 235.995441 370.390839 
L 243.015266 370.387022 
L 250.03509 370.390463 
L 257.054915 370.368583 
L 264.07474 370.381431 
L 271.094564 370.390947 
L 278.114389 370.389925 
L 285.134214 370.387237 
L 292.154038 370.37584 
L 299.173863 370.382076 
L 306.193688 370.356164 
L 313.213512 370.350305 
L 320.233337 370.349928 
L 327.253162 370.349982 
L 334.272986 370.347832 
L 341.292811 370.342026 
L 348.312636 370.334177 
L 355.33246 370.195263 
L 362.352285 370.150159 
L 369.37211 369.469622 
L 376.391934 369.2834 
L 383.411759 369.104114 
L 390.431584 369.010841 
L 397.451408 368.92402 
L 404.471233 368.875476 
L 411.491057 368.856284 
L 418.510882 368.827899 
L 425.530707 368.791665 
L 432.550531 368.791934 
L 439.570356 368.7893 
L 446.590181 368.664417 
L 453.610005 368.554372 
L 460.62983 368.50486 
L 467.649655 368.489001 
L 474.669479 368.472658 
L 481.689304 368.41562 
L 488.709129 368.329552 
L 495.728953 368.307779 
L 502.748778 368.244773 
L 509.768603 368.197143 
L 516.788427 368.169672 
L 523.808252 368.140373 
L 530.828077 368.14548 
L 537.847901 368.142577 
L 544.867726 368.129675 
L 551.887551 368.12946 
L 558.907375 368.134245 
L 565.9272 368.133976 
L 572.947025 368.113494 
L 579.966849 368.048445 
L 586.986674 367.996997 
L 594.006499 367.977805 
L 601.026323 367.976408 
L 608.046148 367.977322 
L 615.065973 367.973075 
L 622.085797 367.975816 
L 629.105622 367.973827 
L 636.125446 367.888565 
L 643.145271 367.845504 
L 650.165096 369.266896 
L 657.18492 369.250285 
L 664.204745 369.247382 
L 671.22457 369.242275 
L 678.244394 369.241952 
L 685.264219 369.232867 
L 692.284044 369.219373 
L 699.303868 369.200504 
L 706.323693 369.1933 
L 713.343518 369.157013 
L 720.363342 369.079653 
L 727.383167 369.041645 
L 734.402992 369.041377 
L 741.422816 369.027346 
L 748.442641 369.014336 
L 755.462466 369.011218 
L 762.48229 369.016002 
L 769.502115 369.001219 
L 776.52194 369.009659 
L 783.541764 369.00939 
L 790.561589 369.004014 
L 797.581414 369.004444 
L 804.601238 369.003423 
L 811.621063 369.004337 
L 818.640888 368.997079 
L 825.660712 369.0081 
L 832.680537 369.009766 
L 839.700362 369.001702 
L 846.720186 369.008476 
L 853.740011 368.987187 
L 860.759836 368.976436 
L 867.77966 368.95848 
L 874.799485 368.944986 
L 881.81931 368.951599 
L 888.839134 368.941653 
L 895.858959 368.943051 
L 902.878783 368.942836 
L 909.898608 368.92058 
L 916.918433 368.864509 
L 923.938257 368.868218 
L 930.958082 368.842522 
L 937.977907 368.827254 
" clip-path="url(#p865612011a)" style="fill: none; stroke: #1f77b4; stroke-width: 1.5; stroke-linecap: square"/>
    <defs>
     <path id="m2f2c91aa9a" d="M 0 3 
C 0.795609 3 1.55874 2.683901 2.12132 2.12132 
C 2.683901 1.55874 3 0.795609 3 0 
C 3 -0.795609 2.683901 -1.55874 2.12132 -2.12132 
C 1.55874 -2.683901 0.795609 -3 0 -3 
C -0.795609 -3 -1.55874 -2.683901 -2.12132 -2.12132 
C -2.683901 -1.55874 -3 -0.795609 -3 0 
C -3 0.795609 -2.683901 1.55874 -2.12132 2.12132 
C -1.55874 2.683901 -0.795609 3 0 3 
z
" style="stroke: #1f77b4"/>
    </defs>
    <g clip-path="url(#p865612011a)">
     <use xlink:href="#m2f2c91aa9a" x="95.598948" y="370.39014" style="fill: #1f77b4; stroke: #1f77b4"/>
     <use xlink:href="#m2f2c91aa9a" x="102.618773" y="370.397882" style="fill: #1f77b4; stroke: #1f77b4"/>
     <use xlink:href="#m2f2c91aa9a" x="109.638597" y="370.392237" style="fill: #1f77b4; stroke: #1f77b4"/>
     <use xlink:href="#m2f2c91aa9a" x="116.658422" y="370.39858" style="fill: #1f77b4; stroke: #1f77b4"/>
     <use xlink:href="#m2f2c91aa9a" x="123.678246" y="370.388259" style="fill: #1f77b4; stroke: #1f77b4"/>
     <use xlink:href="#m2f2c91aa9a" x="130.698071" y="370.383044" style="fill: #1f77b4; stroke: #1f77b4"/>
     <use xlink:href="#m2f2c91aa9a" x="137.717896" y="370.394602" style="fill: #1f77b4; stroke: #1f77b4"/>
     <use xlink:href="#m2f2c91aa9a" x="144.73772" y="370.39143" style="fill: #1f77b4; stroke: #1f77b4"/>
     <use xlink:href="#m2f2c91aa9a" x="151.757545" y="370.392667" style="fill: #1f77b4; stroke: #1f77b4"/>
     <use xlink:href="#m2f2c91aa9a" x="158.77737" y="370.394764" style="fill: #1f77b4; stroke: #1f77b4"/>
     <use xlink:href="#m2f2c91aa9a" x="165.797194" y="370.378367" style="fill: #1f77b4; stroke: #1f77b4"/>
     <use xlink:href="#m2f2c91aa9a" x="172.817019" y="370.379926" style="fill: #1f77b4; stroke: #1f77b4"/>
     <use xlink:href="#m2f2c91aa9a" x="179.836844" y="370.387291" style="fill: #1f77b4; stroke: #1f77b4"/>
     <use xlink:href="#m2f2c91aa9a" x="186.856668" y="370.382506" style="fill: #1f77b4; stroke: #1f77b4"/>
     <use xlink:href="#m2f2c91aa9a" x="193.876493" y="370.384334" style="fill: #1f77b4; stroke: #1f77b4"/>
     <use xlink:href="#m2f2c91aa9a" x="200.896318" y="370.390033" style="fill: #1f77b4; stroke: #1f77b4"/>
     <use xlink:href="#m2f2c91aa9a" x="207.916142" y="370.388743" style="fill: #1f77b4; stroke: #1f77b4"/>
     <use xlink:href="#m2f2c91aa9a" x="214.935967" y="370.387721" style="fill: #1f77b4; stroke: #1f77b4"/>
     <use xlink:href="#m2f2c91aa9a" x="221.955792" y="370.38713" style="fill: #1f77b4; stroke: #1f77b4"/>
     <use xlink:href="#m2f2c91aa9a" x="228.975616" y="370.387022" style="fill: #1f77b4; stroke: #1f77b4"/>
     <use xlink:href="#m2f2c91aa9a" x="235.995441" y="370.390839" style="fill: #1f77b4; stroke: #1f77b4"/>
     <use xlink:href="#m2f2c91aa9a" x="243.015266" y="370.387022" style="fill: #1f77b4; stroke: #1f77b4"/>
     <use xlink:href="#m2f2c91aa9a" x="250.03509" y="370.390463" style="fill: #1f77b4; stroke: #1f77b4"/>
     <use xlink:href="#m2f2c91aa9a" x="257.054915" y="370.368583" style="fill: #1f77b4; stroke: #1f77b4"/>
     <use xlink:href="#m2f2c91aa9a" x="264.07474" y="370.381431" style="fill: #1f77b4; stroke: #1f77b4"/>
     <use xlink:href="#m2f2c91aa9a" x="271.094564" y="370.390947" style="fill: #1f77b4; stroke: #1f77b4"/>
     <use xlink:href="#m2f2c91aa9a" x="278.114389" y="370.389925" style="fill: #1f77b4; stroke: #1f77b4"/>
     <use xlink:href="#m2f2c91aa9a" x="285.134214" y="370.387237" style="fill: #1f77b4; stroke: #1f77b4"/>
     <use xlink:href="#m2f2c91aa9a" x="292.154038" y="370.37584" style="fill: #1f77b4; stroke: #1f77b4"/>
     <use xlink:href="#m2f2c91aa9a" x="299.173863" y="370.382076" style="fill: #1f77b4; stroke: #1f77b4"/>
     <use xlink:href="#m2f2c91aa9a" x="306.193688" y="370.356164" style="fill: #1f77b4; stroke: #1f77b4"/>
     <use xlink:href="#m2f2c91aa9a" x="313.213512" y="370.350305" style="fill: #1f77b4; stroke: #1f77b4"/>
     <use xlink:href="#m2f2c91aa9a" x="320.233337" y="370.349928" style="fill: #1f77b4; stroke: #1f77b4"/>
     <use xlink:href="#m2f2c91aa9a" x="327.253162" y="370.349982" style="fill: #1f77b4; stroke: #1f77b4"/>
     <use xlink:href="#m2f2c91aa9a" x="334.272986" y="370.347832" style="fill: #1f77b4; stroke: #1f77b4"/>
     <use xlink:href="#m2f2c91aa9a" x="341.292811" y="370.342026" style="fill: #1f77b4; stroke: #1f77b4"/>
     <use xlink:href="#m2f2c91aa9a" x="348.312636" y="370.334177" style="fill: #1f77b4; stroke: #1f77b4"/>
     <use xlink:href="#m2f2c91aa9a" x="355.33246" y="370.195263" style="fill: #1f77b4; stroke: #1f77b4"/>
     <use xlink:href="#m2f2c91aa9a" x="362.352285" y="370.150159" style="fill: #1f77b4; stroke: #1f77b4"/>
     <use xlink:href="#m2f2c91aa9a" x="369.37211" y="369.469622" style="fill: #1f77b4; stroke: #1f77b4"/>
     <use xlink:href="#m2f2c91aa9a" x="376.391934" y="369.2834" style="fill: #1f77b4; stroke: #1f77b4"/>
     <use xlink:href="#m2f2c91aa9a" x="383.411759" y="369.104114" style="fill: #1f77b4; stroke: #1f77b4"/>
     <use xlink:href="#m2f2c91aa9a" x="390.431584" y="369.010841" style="fill: #1f77b4; stroke: #1f77b4"/>
     <use xlink:href="#m2f2c91aa9a" x="397.451408" y="368.92402" style="fill: #1f77b4; stroke: #1f77b4"/>
     <use xlink:href="#m2f2c91aa9a" x="404.471233" y="368.875476" style="fill: #1f77b4; stroke: #1f77b4"/>
     <use xlink:href="#m2f2c91aa9a" x="411.491057" y="368.856284" style="fill: #1f77b4; stroke: #1f77b4"/>
     <use xlink:href="#m2f2c91aa9a" x="418.510882" y="368.827899" style="fill: #1f77b4; stroke: #1f77b4"/>
     <use xlink:href="#m2f2c91aa9a" x="425.530707" y="368.791665" style="fill: #1f77b4; stroke: #1f77b4"/>
     <use xlink:href="#m2f2c91aa9a" x="432.550531" y="368.791934" style="fill: #1f77b4; stroke: #1f77b4"/>
     <use xlink:href="#m2f2c91aa9a" x="439.570356" y="368.7893" style="fill: #1f77b4; stroke: #1f77b4"/>
     <use xlink:href="#m2f2c91aa9a" x="446.590181" y="368.664417" style="fill: #1f77b4; stroke: #1f77b4"/>
     <use xlink:href="#m2f2c91aa9a" x="453.610005" y="368.554372" style="fill: #1f77b4; stroke: #1f77b4"/>
     <use xlink:href="#m2f2c91aa9a" x="460.62983" y="368.50486" style="fill: #1f77b4; stroke: #1f77b4"/>
     <use xlink:href="#m2f2c91aa9a" x="467.649655" y="368.489001" style="fill: #1f77b4; stroke: #1f77b4"/>
     <use xlink:href="#m2f2c91aa9a" x="474.669479" y="368.472658" style="fill: #1f77b4; stroke: #1f77b4"/>
     <use xlink:href="#m2f2c91aa9a" x="481.689304" y="368.41562" style="fill: #1f77b4; stroke: #1f77b4"/>
     <use xlink:href="#m2f2c91aa9a" x="488.709129" y="368.329552" style="fill: #1f77b4; stroke: #1f77b4"/>
     <use xlink:href="#m2f2c91aa9a" x="495.728953" y="368.307779" style="fill: #1f77b4; stroke: #1f77b4"/>
     <use xlink:href="#m2f2c91aa9a" x="502.748778" y="368.244773" style="fill: #1f77b4; stroke: #1f77b4"/>
     <use xlink:href="#m2f2c91aa9a" x="509.768603" y="368.197143" style="fill: #1f77b4; stroke: #1f77b4"/>
     <use xlink:href="#m2f2c91aa9a" x="516.788427" y="368.169672" style="fill: #1f77b4; stroke: #1f77b4"/>
     <use xlink:href="#m2f2c91aa9a" x="523.808252" y="368.140373" style="fill: #1f77b4; stroke: #1f77b4"/>
     <use xlink:href="#m2f2c91aa9a" x="530.828077" y="368.14548" style="fill: #1f77b4; stroke: #1f77b4"/>
     <use xlink:href="#m2f2c91aa9a" x="537.847901" y="368.142577" style="fill: #1f77b4; stroke: #1f77b4"/>
     <use xlink:href="#m2f2c91aa9a" x="544.867726" y="368.129675" style="fill: #1f77b4; stroke: #1f77b4"/>
     <use xlink:href="#m2f2c91aa9a" x="551.887551" y="368.12946" style="fill: #1f77b4; stroke: #1f77b4"/>
     <use xlink:href="#m2f2c91aa9a" x="558.907375" y="368.134245" style="fill: #1f77b4; stroke: #1f77b4"/>
     <use xlink:href="#m2f2c91aa9a" x="565.9272" y="368.133976" style="fill: #1f77b4; stroke: #1f77b4"/>
     <use xlink:href="#m2f2c91aa9a" x="572.947025" y="368.113494" style="fill: #1f77b4; stroke: #1f77b4"/>
     <use xlink:href="#m2f2c91aa9a" x="579.966849" y="368.048445" style="fill: #1f77b4; stroke: #1f77b4"/>
     <use xlink:href="#m2f2c91aa9a" x="586.986674" y="367.996997" style="fill: #1f77b4; stroke: #1f77b4"/>
     <use xlink:href="#m2f2c91aa9a" x="594.006499" y="367.977805" style="fill: #1f77b4; stroke: #1f77b4"/>
     <use xlink:href="#m2f2c91aa9a" x="601.026323" y="367.976408" style="fill: #1f77b4; stroke: #1f77b4"/>
     <use xlink:href="#m2f2c91aa9a" x="608.046148" y="367.977322" style="fill: #1f77b4; stroke: #1f77b4"/>
     <use xlink:href="#m2f2c91aa9a" x="615.065973" y="367.973075" style="fill: #1f77b4; stroke: #1f77b4"/>
     <use xlink:href="#m2f2c91aa9a" x="622.085797" y="367.975816" style="fill: #1f77b4; stroke: #1f77b4"/>
     <use xlink:href="#m2f2c91aa9a" x="629.105622" y="367.973827" style="fill: #1f77b4; stroke: #1f77b4"/>
     <use xlink:href="#m2f2c91aa9a" x="636.125446" y="367.888565" style="fill: #1f77b4; stroke: #1f77b4"/>
     <use xlink:href="#m2f2c91aa9a" x="643.145271" y="367.845504" style="fill: #1f77b4; stroke: #1f77b4"/>
     <use xlink:href="#m2f2c91aa9a" x="650.165096" y="369.266896" style="fill: #1f77b4; stroke: #1f77b4"/>
     <use xlink:href="#m2f2c91aa9a" x="657.18492" y="369.250285" style="fill: #1f77b4; stroke: #1f77b4"/>
     <use xlink:href="#m2f2c91aa9a" x="664.204745" y="369.247382" style="fill: #1f77b4; stroke: #1f77b4"/>
     <use xlink:href="#m2f2c91aa9a" x="671.22457" y="369.242275" style="fill: #1f77b4; stroke: #1f77b4"/>
     <use xlink:href="#m2f2c91aa9a" x="678.244394" y="369.241952" style="fill: #1f77b4; stroke: #1f77b4"/>
     <use xlink:href="#m2f2c91aa9a" x="685.264219" y="369.232867" style="fill: #1f77b4; stroke: #1f77b4"/>
     <use xlink:href="#m2f2c91aa9a" x="692.284044" y="369.219373" style="fill: #1f77b4; stroke: #1f77b4"/>
     <use xlink:href="#m2f2c91aa9a" x="699.303868" y="369.200504" style="fill: #1f77b4; stroke: #1f77b4"/>
     <use xlink:href="#m2f2c91aa9a" x="706.323693" y="369.1933" style="fill: #1f77b4; stroke: #1f77b4"/>
     <use xlink:href="#m2f2c91aa9a" x="713.343518" y="369.157013" style="fill: #1f77b4; stroke: #1f77b4"/>
     <use xlink:href="#m2f2c91aa9a" x="720.363342" y="369.079653" style="fill: #1f77b4; stroke: #1f77b4"/>
     <use xlink:href="#m2f2c91aa9a" x="727.383167" y="369.041645" style="fill: #1f77b4; stroke: #1f77b4"/>
     <use xlink:href="#m2f2c91aa9a" x="734.402992" y="369.041377" style="fill: #1f77b4; stroke: #1f77b4"/>
     <use xlink:href="#m2f2c91aa9a" x="741.422816" y="369.027346" style="fill: #1f77b4; stroke: #1f77b4"/>
     <use xlink:href="#m2f2c91aa9a" x="748.442641" y="369.014336" style="fill: #1f77b4; stroke: #1f77b4"/>
     <use xlink:href="#m2f2c91aa9a" x="755.462466" y="369.011218" style="fill: #1f77b4; stroke: #1f77b4"/>
     <use xlink:href="#m2f2c91aa9a" x="762.48229" y="369.016002" style="fill: #1f77b4; stroke: #1f77b4"/>
     <use xlink:href="#m2f2c91aa9a" x="769.502115" y="369.001219" style="fill: #1f77b4; stroke: #1f77b4"/>
     <use xlink:href="#m2f2c91aa9a" x="776.52194" y="369.009659" style="fill: #1f77b4; stroke: #1f77b4"/>
     <use xlink:href="#m2f2c91aa9a" x="783.541764" y="369.00939" style="fill: #1f77b4; stroke: #1f77b4"/>
     <use xlink:href="#m2f2c91aa9a" x="790.561589" y="369.004014" style="fill: #1f77b4; stroke: #1f77b4"/>
     <use xlink:href="#m2f2c91aa9a" x="797.581414" y="369.004444" style="fill: #1f77b4; stroke: #1f77b4"/>
     <use xlink:href="#m2f2c91aa9a" x="804.601238" y="369.003423" style="fill: #1f77b4; stroke: #1f77b4"/>
     <use xlink:href="#m2f2c91aa9a" x="811.621063" y="369.004337" style="fill: #1f77b4; stroke: #1f77b4"/>
     <use xlink:href="#m2f2c91aa9a" x="818.640888" y="368.997079" style="fill: #1f77b4; stroke: #1f77b4"/>
     <use xlink:href="#m2f2c91aa9a" x="825.660712" y="369.0081" style="fill: #1f77b4; stroke: #1f77b4"/>
     <use xlink:href="#m2f2c91aa9a" x="832.680537" y="369.009766" style="fill: #1f77b4; stroke: #1f77b4"/>
     <use xlink:href="#m2f2c91aa9a" x="839.700362" y="369.001702" style="fill: #1f77b4; stroke: #1f77b4"/>
     <use xlink:href="#m2f2c91aa9a" x="846.720186" y="369.008476" style="fill: #1f77b4; stroke: #1f77b4"/>
     <use xlink:href="#m2f2c91aa9a" x="853.740011" y="368.987187" style="fill: #1f77b4; stroke: #1f77b4"/>
     <use xlink:href="#m2f2c91aa9a" x="860.759836" y="368.976436" style="fill: #1f77b4; stroke: #1f77b4"/>
     <use xlink:href="#m2f2c91aa9a" x="867.77966" y="368.95848" style="fill: #1f77b4; stroke: #1f77b4"/>
     <use xlink:href="#m2f2c91aa9a" x="874.799485" y="368.944986" style="fill: #1f77b4; stroke: #1f77b4"/>
     <use xlink:href="#m2f2c91aa9a" x="881.81931" y="368.951599" style="fill: #1f77b4; stroke: #1f77b4"/>
     <use xlink:href="#m2f2c91aa9a" x="888.839134" y="368.941653" style="fill: #1f77b4; stroke: #1f77b4"/>
     <use xlink:href="#m2f2c91aa9a" x="895.858959" y="368.943051" style="fill: #1f77b4; stroke: #1f77b4"/>
     <use xlink:href="#m2f2c91aa9a" x="902.878783" y="368.942836" style="fill: #1f77b4; stroke: #1f77b4"/>
     <use xlink:href="#m2f2c91aa9a" x="909.898608" y="368.92058" style="fill: #1f77b4; stroke: #1f77b4"/>
     <use xlink:href="#m2f2c91aa9a" x="916.918433" y="368.864509" style="fill: #1f77b4; stroke: #1f77b4"/>
     <use xlink:href="#m2f2c91aa9a" x="923.938257" y="368.868218" style="fill: #1f77b4; stroke: #1f77b4"/>
     <use xlink:href="#m2f2c91aa9a" x="930.958082" y="368.842522" style="fill: #1f77b4; stroke: #1f77b4"/>
     <use xlink:href="#m2f2c91aa9a" x="937.977907" y="368.827254" style="fill: #1f77b4; stroke: #1f77b4"/>
    </g>
   </g>
   <g id="line2d_21">
    <path d="M 95.598948 221.394472 
L 102.618773 185.652908 
L 109.638597 185.422281 
L 116.658422 185.196063 
L 123.678246 184.926891 
L 130.698071 155.620406 
L 137.717896 155.373866 
L 144.73772 155.131359 
L 151.757545 154.9017 
L 158.77737 154.679244 
L 165.797194 229.431359 
L 172.817019 229.190196 
L 179.836844 228.955698 
L 186.856668 228.74507 
L 193.876493 271.618862 
L 200.896318 282.862322 
L 207.916142 282.625459 
L 214.935967 282.36392 
L 221.955792 282.396821 
L 228.975616 283.577211 
L 235.995441 283.330887 
L 243.015266 283.1137 
L 250.03509 281.408781 
L 257.054915 243.620284 
L 264.07474 247.140702 
L 271.094564 247.657543 
L 278.114389 247.451108 
L 285.134214 247.231717 
L 292.154038 281.484582 
L 299.173863 282.388005 
L 306.193688 155.743837 
L 313.213512 152.806544 
L 320.233337 152.382276 
L 327.253162 152.075957 
L 334.272986 151.820708 
L 341.292811 190.296678 
L 348.312636 164.89413 
L 355.33246 146.052834 
L 362.352285 145.557067 
L 369.37211 84.483164 
L 376.391934 70.843874 
L 383.411759 70.404285 
L 390.431584 70.32999 
L 397.451408 74.301986 
L 404.471233 72.038725 
L 411.491057 71.586503 
L 418.510882 71.486941 
L 425.530707 71.415871 
L 432.550531 71.412646 
L 439.570356 77.459637 
L 446.590181 78.943552 
L 453.610005 76.941614 
L 460.62983 76.915057 
L 467.649655 76.910649 
L 474.669479 76.900112 
L 481.689304 142.806641 
L 488.709129 155.483159 
L 495.728953 150.196698 
L 502.748778 148.662519 
L 509.768603 147.647062 
L 516.788427 146.805301 
L 523.808252 153.828075 
L 530.828077 151.274031 
L 537.847901 130.182377 
L 544.867726 132.139748 
L 551.887551 132.883721 
L 558.907375 132.083946 
L 565.9272 145.474224 
L 572.947025 155.049107 
L 579.966849 123.106381 
L 586.986674 121.163793 
L 594.006499 124.190434 
L 601.026323 123.618974 
L 608.046148 167.918567 
L 615.065973 171.445222 
L 622.085797 223.224971 
L 629.105622 224.893548 
L 636.125446 224.428532 
L 643.145271 223.980126 
L 650.165096 221.538063 
L 657.18492 145.838335 
L 664.204745 145.329397 
L 671.22457 144.793633 
L 678.244394 144.316897 
L 685.264219 143.371972 
L 692.284044 199.169252 
L 699.303868 223.625316 
L 706.323693 216.462929 
L 713.343518 215.038688 
L 720.363342 213.598695 
L 727.383167 214.043552 
L 734.402992 216.198864 
L 741.422816 219.152285 
L 748.442641 218.518733 
L 755.462466 218.114679 
L 762.48229 220.746943 
L 769.502115 223.324963 
L 776.52194 219.59139 
L 783.541764 222.260693 
L 790.561589 222.301066 
L 797.581414 221.797504 
L 804.601238 281.430876 
L 811.621063 286.541007 
L 818.640888 286.116848 
L 825.660712 287.277669 
L 832.680537 290.037127 
L 839.700362 289.605065 
L 846.720186 274.919782 
L 853.740011 232.747063 
L 860.759836 211.096152 
L 867.77966 212.231115 
L 874.799485 214.883969 
L 881.81931 214.488032 
L 888.839134 252.806918 
L 895.858959 291.054895 
L 902.878783 288.939634 
L 909.898608 257.768297 
L 916.918433 214.179831 
L 923.938257 213.710352 
L 930.958082 213.127227 
L 937.977907 212.749837 
" clip-path="url(#p865612011a)" style="fill: none; stroke: #ff7f0e; stroke-width: 1.5; stroke-linecap: square"/>
    <defs>
     <path id="m3e18560fb1" d="M 0 3 
C 0.795609 3 1.55874 2.683901 2.12132 2.12132 
C 2.683901 1.55874 3 0.795609 3 0 
C 3 -0.795609 2.683901 -1.55874 2.12132 -2.12132 
C 1.55874 -2.683901 0.795609 -3 0 -3 
C -0.795609 -3 -1.55874 -2.683901 -2.12132 -2.12132 
C -2.683901 -1.55874 -3 -0.795609 -3 0 
C -3 0.795609 -2.683901 1.55874 -2.12132 2.12132 
C -1.55874 2.683901 -0.795609 3 0 3 
z
" style="stroke: #ff7f0e"/>
    </defs>
    <g clip-path="url(#p865612011a)">
     <use xlink:href="#m3e18560fb1" x="95.598948" y="221.394472" style="fill: #ff7f0e; stroke: #ff7f0e"/>
     <use xlink:href="#m3e18560fb1" x="102.618773" y="185.652908" style="fill: #ff7f0e; stroke: #ff7f0e"/>
     <use xlink:href="#m3e18560fb1" x="109.638597" y="185.422281" style="fill: #ff7f0e; stroke: #ff7f0e"/>
     <use xlink:href="#m3e18560fb1" x="116.658422" y="185.196063" style="fill: #ff7f0e; stroke: #ff7f0e"/>
     <use xlink:href="#m3e18560fb1" x="123.678246" y="184.926891" style="fill: #ff7f0e; stroke: #ff7f0e"/>
     <use xlink:href="#m3e18560fb1" x="130.698071" y="155.620406" style="fill: #ff7f0e; stroke: #ff7f0e"/>
     <use xlink:href="#m3e18560fb1" x="137.717896" y="155.373866" style="fill: #ff7f0e; stroke: #ff7f0e"/>
     <use xlink:href="#m3e18560fb1" x="144.73772" y="155.131359" style="fill: #ff7f0e; stroke: #ff7f0e"/>
     <use xlink:href="#m3e18560fb1" x="151.757545" y="154.9017" style="fill: #ff7f0e; stroke: #ff7f0e"/>
     <use xlink:href="#m3e18560fb1" x="158.77737" y="154.679244" style="fill: #ff7f0e; stroke: #ff7f0e"/>
     <use xlink:href="#m3e18560fb1" x="165.797194" y="229.431359" style="fill: #ff7f0e; stroke: #ff7f0e"/>
     <use xlink:href="#m3e18560fb1" x="172.817019" y="229.190196" style="fill: #ff7f0e; stroke: #ff7f0e"/>
     <use xlink:href="#m3e18560fb1" x="179.836844" y="228.955698" style="fill: #ff7f0e; stroke: #ff7f0e"/>
     <use xlink:href="#m3e18560fb1" x="186.856668" y="228.74507" style="fill: #ff7f0e; stroke: #ff7f0e"/>
     <use xlink:href="#m3e18560fb1" x="193.876493" y="271.618862" style="fill: #ff7f0e; stroke: #ff7f0e"/>
     <use xlink:href="#m3e18560fb1" x="200.896318" y="282.862322" style="fill: #ff7f0e; stroke: #ff7f0e"/>
     <use xlink:href="#m3e18560fb1" x="207.916142" y="282.625459" style="fill: #ff7f0e; stroke: #ff7f0e"/>
     <use xlink:href="#m3e18560fb1" x="214.935967" y="282.36392" style="fill: #ff7f0e; stroke: #ff7f0e"/>
     <use xlink:href="#m3e18560fb1" x="221.955792" y="282.396821" style="fill: #ff7f0e; stroke: #ff7f0e"/>
     <use xlink:href="#m3e18560fb1" x="228.975616" y="283.577211" style="fill: #ff7f0e; stroke: #ff7f0e"/>
     <use xlink:href="#m3e18560fb1" x="235.995441" y="283.330887" style="fill: #ff7f0e; stroke: #ff7f0e"/>
     <use xlink:href="#m3e18560fb1" x="243.015266" y="283.1137" style="fill: #ff7f0e; stroke: #ff7f0e"/>
     <use xlink:href="#m3e18560fb1" x="250.03509" y="281.408781" style="fill: #ff7f0e; stroke: #ff7f0e"/>
     <use xlink:href="#m3e18560fb1" x="257.054915" y="243.620284" style="fill: #ff7f0e; stroke: #ff7f0e"/>
     <use xlink:href="#m3e18560fb1" x="264.07474" y="247.140702" style="fill: #ff7f0e; stroke: #ff7f0e"/>
     <use xlink:href="#m3e18560fb1" x="271.094564" y="247.657543" style="fill: #ff7f0e; stroke: #ff7f0e"/>
     <use xlink:href="#m3e18560fb1" x="278.114389" y="247.451108" style="fill: #ff7f0e; stroke: #ff7f0e"/>
     <use xlink:href="#m3e18560fb1" x="285.134214" y="247.231717" style="fill: #ff7f0e; stroke: #ff7f0e"/>
     <use xlink:href="#m3e18560fb1" x="292.154038" y="281.484582" style="fill: #ff7f0e; stroke: #ff7f0e"/>
     <use xlink:href="#m3e18560fb1" x="299.173863" y="282.388005" style="fill: #ff7f0e; stroke: #ff7f0e"/>
     <use xlink:href="#m3e18560fb1" x="306.193688" y="155.743837" style="fill: #ff7f0e; stroke: #ff7f0e"/>
     <use xlink:href="#m3e18560fb1" x="313.213512" y="152.806544" style="fill: #ff7f0e; stroke: #ff7f0e"/>
     <use xlink:href="#m3e18560fb1" x="320.233337" y="152.382276" style="fill: #ff7f0e; stroke: #ff7f0e"/>
     <use xlink:href="#m3e18560fb1" x="327.253162" y="152.075957" style="fill: #ff7f0e; stroke: #ff7f0e"/>
     <use xlink:href="#m3e18560fb1" x="334.272986" y="151.820708" style="fill: #ff7f0e; stroke: #ff7f0e"/>
     <use xlink:href="#m3e18560fb1" x="341.292811" y="190.296678" style="fill: #ff7f0e; stroke: #ff7f0e"/>
     <use xlink:href="#m3e18560fb1" x="348.312636" y="164.89413" style="fill: #ff7f0e; stroke: #ff7f0e"/>
     <use xlink:href="#m3e18560fb1" x="355.33246" y="146.052834" style="fill: #ff7f0e; stroke: #ff7f0e"/>
     <use xlink:href="#m3e18560fb1" x="362.352285" y="145.557067" style="fill: #ff7f0e; stroke: #ff7f0e"/>
     <use xlink:href="#m3e18560fb1" x="369.37211" y="84.483164" style="fill: #ff7f0e; stroke: #ff7f0e"/>
     <use xlink:href="#m3e18560fb1" x="376.391934" y="70.843874" style="fill: #ff7f0e; stroke: #ff7f0e"/>
     <use xlink:href="#m3e18560fb1" x="383.411759" y="70.404285" style="fill: #ff7f0e; stroke: #ff7f0e"/>
     <use xlink:href="#m3e18560fb1" x="390.431584" y="70.32999" style="fill: #ff7f0e; stroke: #ff7f0e"/>
     <use xlink:href="#m3e18560fb1" x="397.451408" y="74.301986" style="fill: #ff7f0e; stroke: #ff7f0e"/>
     <use xlink:href="#m3e18560fb1" x="404.471233" y="72.038725" style="fill: #ff7f0e; stroke: #ff7f0e"/>
     <use xlink:href="#m3e18560fb1" x="411.491057" y="71.586503" style="fill: #ff7f0e; stroke: #ff7f0e"/>
     <use xlink:href="#m3e18560fb1" x="418.510882" y="71.486941" style="fill: #ff7f0e; stroke: #ff7f0e"/>
     <use xlink:href="#m3e18560fb1" x="425.530707" y="71.415871" style="fill: #ff7f0e; stroke: #ff7f0e"/>
     <use xlink:href="#m3e18560fb1" x="432.550531" y="71.412646" style="fill: #ff7f0e; stroke: #ff7f0e"/>
     <use xlink:href="#m3e18560fb1" x="439.570356" y="77.459637" style="fill: #ff7f0e; stroke: #ff7f0e"/>
     <use xlink:href="#m3e18560fb1" x="446.590181" y="78.943552" style="fill: #ff7f0e; stroke: #ff7f0e"/>
     <use xlink:href="#m3e18560fb1" x="453.610005" y="76.941614" style="fill: #ff7f0e; stroke: #ff7f0e"/>
     <use xlink:href="#m3e18560fb1" x="460.62983" y="76.915057" style="fill: #ff7f0e; stroke: #ff7f0e"/>
     <use xlink:href="#m3e18560fb1" x="467.649655" y="76.910649" style="fill: #ff7f0e; stroke: #ff7f0e"/>
     <use xlink:href="#m3e18560fb1" x="474.669479" y="76.900112" style="fill: #ff7f0e; stroke: #ff7f0e"/>
     <use xlink:href="#m3e18560fb1" x="481.689304" y="142.806641" style="fill: #ff7f0e; stroke: #ff7f0e"/>
     <use xlink:href="#m3e18560fb1" x="488.709129" y="155.483159" style="fill: #ff7f0e; stroke: #ff7f0e"/>
     <use xlink:href="#m3e18560fb1" x="495.728953" y="150.196698" style="fill: #ff7f0e; stroke: #ff7f0e"/>
     <use xlink:href="#m3e18560fb1" x="502.748778" y="148.662519" style="fill: #ff7f0e; stroke: #ff7f0e"/>
     <use xlink:href="#m3e18560fb1" x="509.768603" y="147.647062" style="fill: #ff7f0e; stroke: #ff7f0e"/>
     <use xlink:href="#m3e18560fb1" x="516.788427" y="146.805301" style="fill: #ff7f0e; stroke: #ff7f0e"/>
     <use xlink:href="#m3e18560fb1" x="523.808252" y="153.828075" style="fill: #ff7f0e; stroke: #ff7f0e"/>
     <use xlink:href="#m3e18560fb1" x="530.828077" y="151.274031" style="fill: #ff7f0e; stroke: #ff7f0e"/>
     <use xlink:href="#m3e18560fb1" x="537.847901" y="130.182377" style="fill: #ff7f0e; stroke: #ff7f0e"/>
     <use xlink:href="#m3e18560fb1" x="544.867726" y="132.139748" style="fill: #ff7f0e; stroke: #ff7f0e"/>
     <use xlink:href="#m3e18560fb1" x="551.887551" y="132.883721" style="fill: #ff7f0e; stroke: #ff7f0e"/>
     <use xlink:href="#m3e18560fb1" x="558.907375" y="132.083946" style="fill: #ff7f0e; stroke: #ff7f0e"/>
     <use xlink:href="#m3e18560fb1" x="565.9272" y="145.474224" style="fill: #ff7f0e; stroke: #ff7f0e"/>
     <use xlink:href="#m3e18560fb1" x="572.947025" y="155.049107" style="fill: #ff7f0e; stroke: #ff7f0e"/>
     <use xlink:href="#m3e18560fb1" x="579.966849" y="123.106381" style="fill: #ff7f0e; stroke: #ff7f0e"/>
     <use xlink:href="#m3e18560fb1" x="586.986674" y="121.163793" style="fill: #ff7f0e; stroke: #ff7f0e"/>
     <use xlink:href="#m3e18560fb1" x="594.006499" y="124.190434" style="fill: #ff7f0e; stroke: #ff7f0e"/>
     <use xlink:href="#m3e18560fb1" x="601.026323" y="123.618974" style="fill: #ff7f0e; stroke: #ff7f0e"/>
     <use xlink:href="#m3e18560fb1" x="608.046148" y="167.918567" style="fill: #ff7f0e; stroke: #ff7f0e"/>
     <use xlink:href="#m3e18560fb1" x="615.065973" y="171.445222" style="fill: #ff7f0e; stroke: #ff7f0e"/>
     <use xlink:href="#m3e18560fb1" x="622.085797" y="223.224971" style="fill: #ff7f0e; stroke: #ff7f0e"/>
     <use xlink:href="#m3e18560fb1" x="629.105622" y="224.893548" style="fill: #ff7f0e; stroke: #ff7f0e"/>
     <use xlink:href="#m3e18560fb1" x="636.125446" y="224.428532" style="fill: #ff7f0e; stroke: #ff7f0e"/>
     <use xlink:href="#m3e18560fb1" x="643.145271" y="223.980126" style="fill: #ff7f0e; stroke: #ff7f0e"/>
     <use xlink:href="#m3e18560fb1" x="650.165096" y="221.538063" style="fill: #ff7f0e; stroke: #ff7f0e"/>
     <use xlink:href="#m3e18560fb1" x="657.18492" y="145.838335" style="fill: #ff7f0e; stroke: #ff7f0e"/>
     <use xlink:href="#m3e18560fb1" x="664.204745" y="145.329397" style="fill: #ff7f0e; stroke: #ff7f0e"/>
     <use xlink:href="#m3e18560fb1" x="671.22457" y="144.793633" style="fill: #ff7f0e; stroke: #ff7f0e"/>
     <use xlink:href="#m3e18560fb1" x="678.244394" y="144.316897" style="fill: #ff7f0e; stroke: #ff7f0e"/>
     <use xlink:href="#m3e18560fb1" x="685.264219" y="143.371972" style="fill: #ff7f0e; stroke: #ff7f0e"/>
     <use xlink:href="#m3e18560fb1" x="692.284044" y="199.169252" style="fill: #ff7f0e; stroke: #ff7f0e"/>
     <use xlink:href="#m3e18560fb1" x="699.303868" y="223.625316" style="fill: #ff7f0e; stroke: #ff7f0e"/>
     <use xlink:href="#m3e18560fb1" x="706.323693" y="216.462929" style="fill: #ff7f0e; stroke: #ff7f0e"/>
     <use xlink:href="#m3e18560fb1" x="713.343518" y="215.038688" style="fill: #ff7f0e; stroke: #ff7f0e"/>
     <use xlink:href="#m3e18560fb1" x="720.363342" y="213.598695" style="fill: #ff7f0e; stroke: #ff7f0e"/>
     <use xlink:href="#m3e18560fb1" x="727.383167" y="214.043552" style="fill: #ff7f0e; stroke: #ff7f0e"/>
     <use xlink:href="#m3e18560fb1" x="734.402992" y="216.198864" style="fill: #ff7f0e; stroke: #ff7f0e"/>
     <use xlink:href="#m3e18560fb1" x="741.422816" y="219.152285" style="fill: #ff7f0e; stroke: #ff7f0e"/>
     <use xlink:href="#m3e18560fb1" x="748.442641" y="218.518733" style="fill: #ff7f0e; stroke: #ff7f0e"/>
     <use xlink:href="#m3e18560fb1" x="755.462466" y="218.114679" style="fill: #ff7f0e; stroke: #ff7f0e"/>
     <use xlink:href="#m3e18560fb1" x="762.48229" y="220.746943" style="fill: #ff7f0e; stroke: #ff7f0e"/>
     <use xlink:href="#m3e18560fb1" x="769.502115" y="223.324963" style="fill: #ff7f0e; stroke: #ff7f0e"/>
     <use xlink:href="#m3e18560fb1" x="776.52194" y="219.59139" style="fill: #ff7f0e; stroke: #ff7f0e"/>
     <use xlink:href="#m3e18560fb1" x="783.541764" y="222.260693" style="fill: #ff7f0e; stroke: #ff7f0e"/>
     <use xlink:href="#m3e18560fb1" x="790.561589" y="222.301066" style="fill: #ff7f0e; stroke: #ff7f0e"/>
     <use xlink:href="#m3e18560fb1" x="797.581414" y="221.797504" style="fill: #ff7f0e; stroke: #ff7f0e"/>
     <use xlink:href="#m3e18560fb1" x="804.601238" y="281.430876" style="fill: #ff7f0e; stroke: #ff7f0e"/>
     <use xlink:href="#m3e18560fb1" x="811.621063" y="286.541007" style="fill: #ff7f0e; stroke: #ff7f0e"/>
     <use xlink:href="#m3e18560fb1" x="818.640888" y="286.116848" style="fill: #ff7f0e; stroke: #ff7f0e"/>
     <use xlink:href="#m3e18560fb1" x="825.660712" y="287.277669" style="fill: #ff7f0e; stroke: #ff7f0e"/>
     <use xlink:href="#m3e18560fb1" x="832.680537" y="290.037127" style="fill: #ff7f0e; stroke: #ff7f0e"/>
     <use xlink:href="#m3e18560fb1" x="839.700362" y="289.605065" style="fill: #ff7f0e; stroke: #ff7f0e"/>
     <use xlink:href="#m3e18560fb1" x="846.720186" y="274.919782" style="fill: #ff7f0e; stroke: #ff7f0e"/>
     <use xlink:href="#m3e18560fb1" x="853.740011" y="232.747063" style="fill: #ff7f0e; stroke: #ff7f0e"/>
     <use xlink:href="#m3e18560fb1" x="860.759836" y="211.096152" style="fill: #ff7f0e; stroke: #ff7f0e"/>
     <use xlink:href="#m3e18560fb1" x="867.77966" y="212.231115" style="fill: #ff7f0e; stroke: #ff7f0e"/>
     <use xlink:href="#m3e18560fb1" x="874.799485" y="214.883969" style="fill: #ff7f0e; stroke: #ff7f0e"/>
     <use xlink:href="#m3e18560fb1" x="881.81931" y="214.488032" style="fill: #ff7f0e; stroke: #ff7f0e"/>
     <use xlink:href="#m3e18560fb1" x="888.839134" y="252.806918" style="fill: #ff7f0e; stroke: #ff7f0e"/>
     <use xlink:href="#m3e18560fb1" x="895.858959" y="291.054895" style="fill: #ff7f0e; stroke: #ff7f0e"/>
     <use xlink:href="#m3e18560fb1" x="902.878783" y="288.939634" style="fill: #ff7f0e; stroke: #ff7f0e"/>
     <use xlink:href="#m3e18560fb1" x="909.898608" y="257.768297" style="fill: #ff7f0e; stroke: #ff7f0e"/>
     <use xlink:href="#m3e18560fb1" x="916.918433" y="214.179831" style="fill: #ff7f0e; stroke: #ff7f0e"/>
     <use xlink:href="#m3e18560fb1" x="923.938257" y="213.710352" style="fill: #ff7f0e; stroke: #ff7f0e"/>
     <use xlink:href="#m3e18560fb1" x="930.958082" y="213.127227" style="fill: #ff7f0e; stroke: #ff7f0e"/>
     <use xlink:href="#m3e18560fb1" x="937.977907" y="212.749837" style="fill: #ff7f0e; stroke: #ff7f0e"/>
    </g>
   </g>
   <g id="patch_3">
    <path d="M 53.48 510.633709 
L 53.48 26.80125 
" style="fill: none; stroke: #000000; stroke-width: 0.8; stroke-linejoin: miter; stroke-linecap: square"/>
   </g>
   <g id="patch_4">
    <path d="M 980.096855 510.633709 
L 980.096855 26.80125 
" style="fill: none; stroke: #000000; stroke-width: 0.8; stroke-linejoin: miter; stroke-linecap: square"/>
   </g>
   <g id="patch_5">
    <path d="M 53.48 510.633709 
L 980.096855 510.633709 
" style="fill: none; stroke: #000000; stroke-width: 0.8; stroke-linejoin: miter; stroke-linecap: square"/>
   </g>
   <g id="patch_6">
    <path d="M 53.48 26.80125 
L 980.096855 26.80125 
" style="fill: none; stroke: #000000; stroke-width: 0.8; stroke-linejoin: miter; stroke-linecap: square"/>
   </g>
   <g id="text_22">
    <!-- 物理内存使用量 vs. working_set使用量 随时间变化趋势 -->
    <g transform="translate(370.44374 20.80125) scale(0.12 -0.12)">
     <defs>
      <path id="ArialUnicodeMS-7269" d="M 5894 4372 
Q 5778 2013 5592 1016 
Q 5406 19 5240 -150 
Q 5075 -319 4794 -319 
Q 4650 -319 4091 -172 
L 3994 325 
Q 4588 141 4688 141 
Q 4888 141 4963 342 
Q 5038 544 5184 1453 
Q 5331 2363 5394 3903 
L 5063 3903 
Q 4900 1088 3278 -319 
L 2841 -38 
Q 4422 1244 4616 3903 
L 4213 3903 
Q 3875 1706 2631 556 
L 2216 825 
Q 3500 2034 3756 3903 
L 3425 3903 
Q 3147 3078 2675 2484 
L 2222 2688 
Q 3091 3713 3225 5306 
L 3659 5191 
Q 3641 4784 3541 4372 
L 5894 4372 
z
M 2778 1894 
L 2081 1625 
L 2081 -469 
L 1594 -469 
L 1594 1422 
L 788 1100 
L 453 1478 
L 1594 1913 
L 1594 3366 
L 1247 3366 
Q 1128 2781 891 2369 
L 434 2541 
Q 863 3241 831 4622 
L 1319 4525 
Q 1334 4269 1334 4109 
Q 1334 3941 1319 3834 
L 1594 3834 
L 1594 5269 
L 2081 5269 
L 2081 3834 
L 2650 3834 
L 2650 3366 
L 2081 3366 
L 2081 2106 
L 2778 2369 
L 2778 1894 
z
" transform="scale(0.015625)"/>
      <path id="ArialUnicodeMS-7406" d="M 6047 -103 
L 2163 -103 
L 2163 366 
L 3853 366 
L 3853 1094 
L 2572 1094 
L 2572 1563 
L 3853 1563 
L 3853 2163 
L 2528 2163 
L 2528 4959 
L 5656 4959 
L 5656 2163 
L 4341 2163 
L 4341 1563 
L 5613 1563 
L 5613 1094 
L 4341 1094 
L 4341 366 
L 6047 366 
L 6047 -103 
z
M 5191 4494 
L 4341 4494 
L 4341 3822 
L 5178 3822 
L 5191 4494 
z
M 3853 3822 
L 3853 4494 
L 3016 4494 
L 3016 3822 
L 3853 3822 
z
M 5172 2631 
L 5172 3353 
L 4341 3353 
L 4341 2631 
L 5172 2631 
z
M 3853 2631 
L 3853 3353 
L 3016 3353 
L 3016 2631 
L 3853 2631 
z
M 2456 1153 
L 647 409 
L 225 794 
Q 553 891 1191 1131 
L 1191 2606 
L 544 2606 
L 544 3072 
L 1191 3072 
L 1191 4319 
L 416 4319 
L 416 4788 
L 2400 4788 
L 2400 4319 
L 1678 4319 
L 1678 3072 
L 2309 3072 
L 2309 2606 
L 1678 2606 
L 1678 1319 
Q 2200 1538 2456 1631 
L 2456 1153 
z
" transform="scale(0.015625)"/>
      <path id="ArialUnicodeMS-5185" d="M 5538 84 
Q 5538 -341 4872 -341 
Q 4713 -341 4481 -331 
L 4294 141 
Q 4619 116 4800 116 
Q 5075 116 5075 281 
L 5075 3725 
L 3450 3725 
Q 3450 3322 3413 2938 
Q 4216 2334 4819 1300 
L 4428 1006 
Q 3994 1759 3263 2413 
Q 2831 1444 1772 872 
L 1478 1281 
Q 2225 1684 2600 2196 
Q 2975 2709 2975 3725 
L 1325 3725 
L 1325 -409 
L 838 -409 
L 838 4191 
L 3009 4191 
L 3009 5275 
L 3469 5275 
L 3469 4191 
L 5538 4191 
L 5538 84 
z
" transform="scale(0.015625)"/>
      <path id="ArialUnicodeMS-5b58" d="M 5850 4013 
L 2425 4013 
L 2028 3238 
L 2028 -441 
L 1544 -441 
L 1544 2491 
Q 1334 2172 738 1594 
L 300 1913 
Q 1272 2759 1875 4013 
L 756 4013 
L 756 4481 
L 2081 4481 
Q 2203 4744 2344 5369 
L 2797 5209 
Q 2778 5038 2606 4481 
L 5850 4481 
L 5850 4013 
z
M 6034 1472 
L 4347 1472 
L 4347 153 
Q 4347 -134 4144 -265 
Q 3941 -397 3219 -372 
L 3009 128 
L 3628 128 
Q 3841 128 3841 366 
L 3841 1472 
L 2253 1472 
L 2253 1941 
L 3841 1941 
L 3841 2425 
Q 4309 2631 4697 3022 
L 2688 3022 
L 2688 3488 
L 5422 3488 
L 5422 3047 
Q 4831 2441 4347 2156 
L 4347 1941 
L 6034 1941 
L 6034 1472 
z
" transform="scale(0.015625)"/>
      <path id="ArialUnicodeMS-4f7f" d="M 6303 84 
L 6009 -378 
Q 5394 -328 4664 -104 
Q 3934 119 3525 397 
Q 3059 -59 2194 -453 
L 1819 -25 
Q 2713 288 3103 691 
Q 2803 944 2291 1588 
L 2706 1850 
Q 3078 1341 3425 1075 
Q 3641 1409 3688 1931 
L 2234 1931 
L 2234 3719 
L 3713 3719 
L 3713 4141 
L 1875 4141 
L 1684 3669 
L 1684 -469 
L 1184 -469 
L 1184 2772 
Q 981 2431 678 2041 
L 319 2363 
Q 1153 3313 1753 5331 
L 2203 5166 
L 2034 4628 
L 3713 4628 
L 3713 5350 
L 4219 5350 
L 4219 4628 
L 5947 4628 
L 5947 4141 
L 4219 4141 
L 4219 3719 
L 5709 3719 
L 5709 1931 
L 4197 1931 
Q 4106 1203 3841 781 
Q 4734 256 6303 84 
z
M 5191 2419 
L 5191 3250 
L 4219 3250 
L 4219 2419 
L 5191 2419 
z
M 3713 2419 
L 3713 3231 
L 2725 3231 
L 2725 2419 
L 3713 2419 
z
" transform="scale(0.015625)"/>
      <path id="ArialUnicodeMS-7528" d="M 5472 159 
Q 5472 -66 5340 -219 
Q 5209 -372 5013 -372 
L 4347 -372 
L 4191 128 
L 4722 113 
Q 4966 113 4966 256 
L 4966 1722 
L 3572 1722 
L 3572 13 
L 3084 13 
L 3084 1722 
L 1678 1722 
Q 1584 466 744 -469 
L 331 -159 
Q 794 394 1001 936 
Q 1209 1478 1209 2194 
L 1209 5044 
L 5472 5044 
L 5472 159 
z
M 4966 3641 
L 4966 4575 
L 3572 4575 
L 3572 3641 
L 4966 3641 
z
M 3084 3641 
L 3084 4575 
L 1697 4575 
L 1697 3641 
L 3084 3641 
z
M 4966 2188 
L 4966 3175 
L 3572 3175 
L 3572 2188 
L 4966 2188 
z
M 3084 2188 
L 3084 3175 
L 1697 3175 
L 1697 2188 
L 3084 2188 
z
" transform="scale(0.015625)"/>
      <path id="ArialUnicodeMS-91cf" d="M 5056 3378 
L 1313 3378 
L 1313 5050 
L 5056 5050 
L 5056 3378 
z
M 4569 4403 
L 4569 4609 
L 1797 4609 
L 1797 4403 
L 4569 4403 
z
M 4569 3794 
L 4569 4031 
L 1797 4031 
L 1797 3794 
L 4569 3794 
z
M 5797 2816 
L 581 2816 
L 581 3231 
L 5797 3231 
L 5797 2816 
z
M 6059 -191 
L 341 -191 
L 341 275 
L 2950 275 
L 2950 459 
L 897 459 
L 897 878 
L 2950 878 
L 2950 1044 
L 1125 1044 
L 1125 2669 
L 5269 2669 
L 5269 1044 
L 3438 1044 
L 3438 878 
L 5509 878 
L 5509 459 
L 3438 459 
L 3438 275 
L 6059 275 
L 6059 -191 
z
M 4781 2053 
L 4781 2253 
L 3438 2253 
L 3438 2053 
L 4781 2053 
z
M 2950 2053 
L 2950 2253 
L 1613 2253 
L 1613 2053 
L 2950 2053 
z
M 4781 1459 
L 4781 1697 
L 3438 1697 
L 3438 1459 
L 4781 1459 
z
M 2950 1459 
L 2950 1697 
L 1613 1697 
L 1613 1459 
L 2950 1459 
z
" transform="scale(0.015625)"/>
      <path id="ArialUnicodeMS-76" d="M 3122 3316 
L 1869 0 
L 1344 0 
L 84 3316 
L 678 3316 
L 1363 1397 
Q 1556 853 1594 659 
L 1606 659 
Q 1656 859 1778 1197 
L 2547 3316 
L 3122 3316 
z
" transform="scale(0.015625)"/>
      <path id="ArialUnicodeMS-73" d="M 2278 2388 
Q 2241 2659 2058 2795 
Q 1875 2931 1550 2931 
Q 1228 2931 1029 2822 
Q 831 2713 831 2503 
Q 831 2306 989 2222 
Q 1147 2138 1613 2016 
Q 2138 1881 2398 1778 
Q 2659 1675 2804 1489 
Q 2950 1303 2950 972 
Q 2950 528 2587 225 
Q 2225 -78 1619 -78 
Q 988 -78 633 189 
Q 278 456 197 991 
L 756 1075 
Q 800 728 1014 556 
Q 1228 384 1613 384 
Q 1981 384 2178 539 
Q 2375 694 2375 916 
Q 2375 1066 2284 1156 
Q 2194 1247 2058 1292 
Q 1922 1338 1447 1453 
Q 741 1622 514 1862 
Q 288 2103 288 2438 
Q 288 2853 619 3122 
Q 950 3391 1509 3391 
Q 2103 3391 2433 3158 
Q 2763 2925 2828 2463 
L 2278 2388 
z
" transform="scale(0.015625)"/>
      <path id="ArialUnicodeMS-2e" d="M 1209 0 
L 569 0 
L 569 641 
L 1209 641 
L 1209 0 
z
" transform="scale(0.015625)"/>
      <path id="ArialUnicodeMS-77" d="M 4588 3316 
L 3547 0 
L 2963 0 
L 2438 1991 
Q 2434 1991 2371 2259 
Q 2309 2528 2309 2553 
L 2297 2553 
L 1638 0 
L 1050 0 
L 31 3316 
L 616 3316 
L 1338 691 
L 1450 1138 
L 2041 3316 
L 2619 3316 
L 3066 1578 
Q 3253 859 3272 763 
L 3284 763 
L 4038 3316 
L 4588 3316 
z
" transform="scale(0.015625)"/>
      <path id="ArialUnicodeMS-6f" d="M 1778 3391 
Q 2450 3391 2892 2953 
Q 3334 2516 3334 1709 
Q 3334 731 2856 326 
Q 2378 -78 1778 -78 
Q 1150 -78 687 337 
Q 225 753 225 1656 
Q 225 2531 672 2961 
Q 1119 3391 1778 3391 
z
M 1778 384 
Q 2259 384 2509 740 
Q 2759 1097 2759 1678 
Q 2759 2300 2476 2615 
Q 2194 2931 1778 2931 
Q 1350 2931 1075 2611 
Q 800 2291 800 1656 
Q 800 1025 1079 704 
Q 1359 384 1778 384 
z
" transform="scale(0.015625)"/>
      <path id="ArialUnicodeMS-72" d="M 2216 3213 
L 2022 2694 
Q 1813 2816 1613 2816 
Q 1297 2816 1134 2533 
Q 972 2250 972 1741 
L 972 0 
L 409 0 
L 409 3316 
L 922 3316 
L 922 2816 
L 934 2816 
Q 1203 3391 1638 3391 
Q 1925 3391 2216 3213 
z
" transform="scale(0.015625)"/>
      <path id="ArialUnicodeMS-6b" d="M 3175 0 
L 2484 0 
L 1381 1697 
L 984 1319 
L 984 0 
L 422 0 
L 422 4581 
L 984 4581 
L 984 1972 
L 2316 3316 
L 3047 3316 
L 1778 2088 
L 3175 0 
z
" transform="scale(0.015625)"/>
      <path id="ArialUnicodeMS-69" d="M 991 0 
L 428 0 
L 428 3316 
L 991 3316 
L 991 0 
z
M 991 3944 
L 428 3944 
L 428 4581 
L 991 4581 
L 991 3944 
z
" transform="scale(0.015625)"/>
      <path id="ArialUnicodeMS-6e" d="M 3138 0 
L 2572 0 
L 2572 2016 
Q 2572 2525 2389 2715 
Q 2206 2906 1881 2906 
Q 1631 2906 1407 2784 
Q 1184 2663 1090 2441 
Q 997 2219 997 1813 
L 997 0 
L 434 0 
L 434 3316 
L 941 3316 
L 941 2847 
L 953 2847 
Q 1131 3119 1392 3255 
Q 1653 3391 1997 3391 
Q 2259 3391 2515 3297 
Q 2772 3203 2917 3015 
Q 3063 2828 3100 2615 
Q 3138 2403 3138 2041 
L 3138 0 
z
" transform="scale(0.015625)"/>
      <path id="ArialUnicodeMS-67" d="M 3144 447 
Q 3144 -259 3003 -607 
Q 2863 -956 2503 -1150 
Q 2144 -1344 1644 -1344 
Q 1081 -1344 706 -1094 
Q 331 -844 331 -275 
L 878 -359 
Q 909 -622 1098 -753 
Q 1288 -884 1638 -884 
Q 2075 -884 2278 -706 
Q 2481 -528 2526 -272 
Q 2572 -16 2572 434 
Q 2206 0 1650 0 
Q 1003 0 611 478 
Q 219 956 219 1684 
Q 219 2416 600 2903 
Q 981 3391 1656 3391 
Q 2244 3391 2613 2919 
L 2625 2919 
L 2625 3316 
L 3144 3316 
L 3144 447 
z
M 1703 459 
Q 2063 459 2341 745 
Q 2619 1031 2619 1703 
Q 2619 2297 2353 2614 
Q 2088 2931 1697 2931 
Q 1297 2931 1045 2606 
Q 794 2281 794 1716 
Q 794 1063 1058 761 
Q 1322 459 1703 459 
z
" transform="scale(0.015625)"/>
      <path id="ArialUnicodeMS-5f" d="M 3238 -800 
L -38 -800 
L -38 -481 
L 3238 -481 
L 3238 -800 
z
" transform="scale(0.015625)"/>
      <path id="ArialUnicodeMS-65" d="M 3309 1516 
L 825 1516 
Q 859 966 1139 675 
Q 1419 384 1838 384 
Q 2159 384 2378 554 
Q 2597 725 2713 1069 
L 3291 997 
Q 3150 478 2775 200 
Q 2400 -78 1838 -78 
Q 1091 -78 670 380 
Q 250 838 250 1631 
Q 250 2416 658 2903 
Q 1066 3391 1806 3391 
Q 2169 3391 2505 3231 
Q 2841 3072 3075 2689 
Q 3309 2306 3309 1516 
z
M 2731 1978 
Q 2697 2484 2417 2707 
Q 2138 2931 1806 2931 
Q 1409 2931 1153 2665 
Q 897 2400 856 1978 
L 2731 1978 
z
" transform="scale(0.015625)"/>
      <path id="ArialUnicodeMS-74" d="M 1722 6 
Q 1472 -44 1300 -44 
Q 931 -44 762 86 
Q 594 216 556 416 
Q 519 616 519 972 
L 519 2881 
L 109 2881 
L 109 3316 
L 519 3316 
L 519 4141 
L 1081 4481 
L 1081 3316 
L 1644 3316 
L 1644 2881 
L 1081 2881 
L 1081 941 
Q 1081 691 1132 586 
Q 1184 481 1394 481 
Q 1516 481 1644 506 
L 1722 6 
z
" transform="scale(0.015625)"/>
      <path id="ArialUnicodeMS-968f" d="M 5844 4172 
L 4331 4172 
Q 4284 4009 4178 3809 
L 5594 3809 
L 5594 1094 
Q 5594 922 5487 803 
Q 5381 684 5216 684 
L 4647 684 
Q 4516 1028 4475 1178 
L 4991 1125 
Q 5106 1125 5106 1281 
L 5106 1644 
L 4025 1644 
L 4025 622 
L 3541 622 
L 3541 2772 
L 3391 2606 
L 3028 2975 
Q 3519 3409 3822 4172 
L 3059 4172 
L 3059 4641 
L 3975 4641 
Q 4084 5066 4122 5281 
L 4550 5106 
Q 4541 4884 4469 4641 
L 5844 4641 
L 5844 4172 
z
M 5106 2950 
L 5106 3341 
L 4025 3341 
L 4025 2950 
L 5106 2950 
z
M 5106 2088 
L 5106 2484 
L 4025 2484 
L 4025 2088 
L 5106 2088 
z
M 6028 341 
Q 5903 -6 5856 -178 
L 4091 -159 
Q 3359 -159 2853 500 
Q 2609 175 1997 -263 
L 1678 141 
Q 2278 606 2528 884 
L 2528 2503 
L 2181 2491 
Q 2328 2128 2328 1856 
Q 2328 1472 2122 1298 
Q 1916 1125 1684 1125 
Q 1556 1125 1428 1153 
L 1269 1684 
L 1638 1625 
Q 1875 1656 1875 1919 
Q 1875 2188 1203 3263 
L 1747 4556 
L 1119 4556 
L 1119 -409 
L 634 -409 
L 634 5025 
L 2278 5025 
L 2278 4609 
Q 1972 3703 1784 3291 
Q 1991 2953 2094 2669 
L 2100 2950 
L 2988 2950 
L 2988 1013 
Q 3281 606 3682 442 
Q 4084 278 4856 278 
Q 5313 278 6028 341 
z
M 3256 3553 
L 2834 3263 
Q 2625 3909 2272 4206 
L 2625 4475 
Q 3028 4138 3256 3553 
z
" transform="scale(0.015625)"/>
      <path id="ArialUnicodeMS-53d8" d="M 5813 4050 
L 3938 4050 
L 3938 2350 
L 3469 2350 
L 3481 4050 
L 2719 4050 
L 2719 2350 
L 2266 2350 
L 2266 4050 
L 372 4050 
L 372 4494 
L 3009 4494 
Q 2856 4744 2400 5031 
L 2694 5331 
Q 3203 5041 3513 4634 
L 3341 4513 
L 3341 4494 
L 5813 4494 
L 5813 4050 
z
M 1947 3519 
Q 1559 2866 775 2059 
L 416 2425 
Q 1016 2938 1594 3809 
L 1947 3519 
z
M 5838 2484 
L 5409 2209 
Q 5081 2878 4306 3488 
L 4653 3756 
Q 5550 3047 5838 2484 
z
M 5978 78 
L 5691 -366 
Q 5153 -297 4609 -142 
Q 4066 13 3188 481 
Q 2103 -150 519 -378 
Q 438 -222 244 63 
Q 1741 225 2753 775 
Q 2309 1069 1819 1784 
L 1350 1784 
L 1350 2253 
L 4603 2253 
L 4603 1791 
Q 4038 1091 3597 775 
Q 4497 263 5978 78 
z
M 3975 1784 
L 2413 1784 
Q 2641 1425 3188 1044 
Q 3763 1481 3975 1784 
z
" transform="scale(0.015625)"/>
      <path id="ArialUnicodeMS-5316" d="M 2431 5147 
Q 2322 4731 2081 4159 
L 1844 3603 
L 1844 -366 
L 1350 -366 
L 1350 2834 
Q 1006 2356 653 2075 
L 306 2444 
Q 1350 3319 2003 5350 
L 2431 5147 
z
M 6081 1325 
Q 5994 419 5786 114 
Q 5578 -191 5203 -191 
L 3872 -191 
Q 3534 -191 3339 -12 
Q 3144 166 3144 469 
L 3144 5178 
L 3628 5178 
L 3628 2853 
Q 4478 3413 5288 4488 
L 5709 4197 
Q 4800 2984 3628 2272 
L 3628 550 
Q 3628 288 3981 288 
L 5113 288 
Q 5553 288 5581 1503 
L 6081 1325 
z
" transform="scale(0.015625)"/>
      <path id="ArialUnicodeMS-8d8b" d="M 5588 422 
L 5100 422 
L 5100 684 
L 2881 684 
L 2881 1147 
L 5100 1147 
L 5100 1766 
L 3181 1766 
L 3181 2247 
L 5100 2247 
L 5100 2809 
L 3059 2809 
L 3059 3272 
L 4341 3272 
Q 4541 3550 4763 4013 
L 3788 4013 
Q 3544 3606 3150 3347 
L 2797 3706 
Q 3575 4272 3775 5275 
L 4206 5069 
Q 4178 4922 4112 4720 
Q 4047 4519 4038 4475 
L 5344 4475 
L 5344 4103 
Q 5009 3466 4897 3272 
L 5588 3272 
L 5588 422 
z
M 6003 281 
L 5831 -197 
L 4856 -225 
L 3097 -225 
Q 2422 -225 1978 -36 
Q 1534 153 1113 622 
Q 928 47 575 -459 
L 166 -122 
Q 581 450 681 917 
Q 781 1384 813 2363 
L 1269 2284 
Q 1269 1788 1209 1191 
Q 1459 869 1581 763 
L 1581 2675 
L 391 2675 
L 391 3156 
L 1394 3156 
L 1394 3891 
L 519 3891 
L 519 4372 
L 1394 4372 
L 1394 5247 
L 1881 5247 
L 1881 4372 
L 2784 4372 
L 2784 3891 
L 1881 3891 
L 1881 3156 
L 2906 3156 
L 2906 2675 
L 2069 2675 
L 2069 1931 
L 2906 1931 
L 2906 1472 
L 2069 1472 
L 2069 447 
Q 2497 238 3059 238 
L 4750 238 
L 6003 281 
z
" transform="scale(0.015625)"/>
      <path id="ArialUnicodeMS-52bf" d="M 6088 2772 
Q 5925 2363 5792 2206 
Q 5659 2050 5516 2050 
Q 5228 2050 5017 2598 
Q 4806 3147 4806 4134 
L 4213 4134 
Q 4172 3519 4025 3219 
Q 4241 3056 4563 2753 
L 4231 2431 
Q 3809 2825 3794 2828 
Q 3459 2425 2619 2100 
L 2322 2497 
Q 3125 2731 3391 3109 
Q 3103 3331 2834 3425 
L 3091 3788 
Q 3234 3734 3406 3628 
Q 3578 3522 3628 3500 
Q 3725 3688 3750 4134 
L 2869 4134 
L 2869 4603 
L 3750 4603 
L 3750 5331 
L 4213 5331 
L 4213 4603 
L 5269 4603 
Q 5284 3666 5318 3314 
Q 5353 2963 5538 2619 
Q 5616 2834 5672 3084 
L 6088 2772 
z
M 2694 3450 
L 2034 3278 
L 2034 2566 
Q 2034 2369 1921 2228 
Q 1809 2088 1625 2088 
L 1069 2088 
L 916 2559 
L 1428 2534 
Q 1463 2534 1506 2570 
Q 1550 2606 1550 2644 
L 1550 3163 
L 647 2950 
L 372 3397 
Q 981 3500 1550 3641 
L 1550 4238 
L 609 4238 
L 609 4703 
L 1550 4703 
L 1550 5331 
L 2034 5331 
L 2034 4703 
L 2656 4703 
L 2656 4238 
L 2034 4238 
L 2034 3731 
L 2694 3897 
L 2694 3450 
z
M 5434 1825 
Q 5434 1313 5343 689 
Q 5253 66 5083 -139 
Q 4913 -344 4634 -344 
Q 4488 -344 3928 -263 
L 3769 250 
L 4231 134 
Q 4403 128 4519 128 
Q 4666 128 4692 137 
Q 4719 147 4776 278 
Q 4834 409 4863 672 
L 4941 1356 
L 3450 1356 
Q 3038 -91 781 -366 
L 569 116 
Q 2350 209 2950 1356 
L 728 1356 
L 728 1825 
L 3041 1825 
L 3078 2181 
L 3553 2100 
L 3506 1825 
L 5434 1825 
z
" transform="scale(0.015625)"/>
     </defs>
     <use xlink:href="#ArialUnicodeMS-7269"/>
     <use xlink:href="#ArialUnicodeMS-7406" transform="translate(100 0)"/>
     <use xlink:href="#ArialUnicodeMS-5185" transform="translate(200 0)"/>
     <use xlink:href="#ArialUnicodeMS-5b58" transform="translate(300 0)"/>
     <use xlink:href="#ArialUnicodeMS-4f7f" transform="translate(400 0)"/>
     <use xlink:href="#ArialUnicodeMS-7528" transform="translate(500 0)"/>
     <use xlink:href="#ArialUnicodeMS-91cf" transform="translate(600 0)"/>
     <use xlink:href="#ArialUnicodeMS-20" transform="translate(700 0)"/>
     <use xlink:href="#ArialUnicodeMS-76" transform="translate(727.783203 0)"/>
     <use xlink:href="#ArialUnicodeMS-73" transform="translate(777.783203 0)"/>
     <use xlink:href="#ArialUnicodeMS-2e" transform="translate(827.783203 0)"/>
     <use xlink:href="#ArialUnicodeMS-20" transform="translate(855.566406 0)"/>
     <use xlink:href="#ArialUnicodeMS-77" transform="translate(883.349609 0)"/>
     <use xlink:href="#ArialUnicodeMS-6f" transform="translate(955.566406 0)"/>
     <use xlink:href="#ArialUnicodeMS-72" transform="translate(1011.181641 0)"/>
     <use xlink:href="#ArialUnicodeMS-6b" transform="translate(1044.482422 0)"/>
     <use xlink:href="#ArialUnicodeMS-69" transform="translate(1094.482422 0)"/>
     <use xlink:href="#ArialUnicodeMS-6e" transform="translate(1116.699219 0)"/>
     <use xlink:href="#ArialUnicodeMS-67" transform="translate(1172.314453 0)"/>
     <use xlink:href="#ArialUnicodeMS-5f" transform="translate(1227.929688 0)"/>
     <use xlink:href="#ArialUnicodeMS-73" transform="translate(1277.929688 0)"/>
     <use xlink:href="#ArialUnicodeMS-65" transform="translate(1327.929688 0)"/>
     <use xlink:href="#ArialUnicodeMS-74" transform="translate(1383.544922 0)"/>
     <use xlink:href="#ArialUnicodeMS-4f7f" transform="translate(1411.328125 0)"/>
     <use xlink:href="#ArialUnicodeMS-7528" transform="translate(1511.328125 0)"/>
     <use xlink:href="#ArialUnicodeMS-91cf" transform="translate(1611.328125 0)"/>
     <use xlink:href="#ArialUnicodeMS-20" transform="translate(1711.328125 0)"/>
     <use xlink:href="#ArialUnicodeMS-968f" transform="translate(1739.111328 0)"/>
     <use xlink:href="#ArialUnicodeMS-65f6" transform="translate(1839.111328 0)"/>
     <use xlink:href="#ArialUnicodeMS-95f4" transform="translate(1939.111328 0)"/>
     <use xlink:href="#ArialUnicodeMS-53d8" transform="translate(2039.111328 0)"/>
     <use xlink:href="#ArialUnicodeMS-5316" transform="translate(2139.111328 0)"/>
     <use xlink:href="#ArialUnicodeMS-8d8b" transform="translate(2239.111328 0)"/>
     <use xlink:href="#ArialUnicodeMS-52bf" transform="translate(2339.111328 0)"/>
    </g>
   </g>
   <g id="legend_1">
    <g id="patch_7">
     <path d="M 858.301542 78.560625 
L 973.096855 78.560625 
Q 975.096855 78.560625 975.096855 76.560625 
L 975.096855 33.80125 
Q 975.096855 31.80125 973.096855 31.80125 
L 858.301542 31.80125 
Q 856.301542 31.80125 856.301542 33.80125 
L 856.301542 76.560625 
Q 856.301542 78.560625 858.301542 78.560625 
z
" style="fill: #ffffff; opacity: 0.8; stroke: #cccccc; stroke-linejoin: miter"/>
    </g>
    <g id="text_23">
     <!-- 指标名称 -->
     <g transform="translate(895.699198 42.959062) scale(0.1 -0.1)">
      <defs>
       <path id="ArialUnicodeMS-6307" d="M 5997 3938 
Q 5863 3278 5667 3089 
Q 5472 2900 5153 2900 
L 3341 2900 
Q 3003 2900 2817 3079 
Q 2631 3259 2631 3584 
L 2631 5306 
L 3138 5306 
L 3138 4288 
Q 4403 4463 5466 5094 
L 5759 4709 
Q 4706 4056 3144 3834 
L 3150 3584 
Q 3159 3366 3384 3366 
L 5172 3366 
Q 5422 3366 5509 4141 
L 5997 3938 
z
M 2541 2069 
L 1791 1772 
L 1791 91 
Q 1744 -400 1166 -409 
L 716 -416 
L 563 84 
L 959 72 
Q 1306 59 1306 275 
L 1306 1594 
Q 919 1422 628 1319 
L 331 1734 
Q 1016 1941 1306 2059 
L 1306 3591 
L 494 3591 
L 494 4056 
L 1306 4056 
L 1306 5306 
L 1791 5306 
L 1791 4056 
L 2484 4056 
L 2484 3591 
L 1791 3591 
L 1791 2247 
Q 2478 2534 2541 2553 
L 2541 2069 
z
M 5606 -409 
L 5119 -409 
L 5119 -38 
L 3213 -38 
L 3213 -434 
L 2725 -434 
L 2725 2491 
L 5606 2491 
L 5606 -409 
z
M 5119 1472 
L 5119 2022 
L 3213 2022 
L 3213 1472 
L 5119 1472 
z
M 5119 428 
L 5119 1006 
L 3213 1006 
L 3213 428 
L 5119 428 
z
" transform="scale(0.015625)"/>
       <path id="ArialUnicodeMS-6807" d="M 2597 2169 
L 2175 1931 
Q 2006 2331 1703 2772 
L 1691 2772 
L 1691 -353 
L 1203 -353 
L 1203 2253 
L 1191 2253 
Q 1022 1659 494 1106 
L 134 1453 
Q 966 2294 1172 3653 
L 372 3653 
L 372 4122 
L 1203 4122 
L 1203 5331 
L 1691 5331 
L 1691 4122 
L 2419 4122 
L 2419 3653 
L 1691 3653 
L 1691 3091 
L 1875 3206 
Q 2334 2725 2597 2169 
z
M 5569 4384 
L 2669 4384 
L 2669 4825 
L 5569 4825 
L 5569 4384 
z
M 5863 2931 
L 4353 2931 
L 4353 422 
Q 4353 78 4300 -64 
Q 4247 -206 4150 -261 
Q 4053 -316 3397 -378 
L 3219 116 
L 3756 91 
Q 3866 91 3866 281 
L 3866 2931 
L 2388 2931 
L 2388 3372 
L 5863 3372 
L 5863 2931 
z
M 6016 728 
L 5556 481 
Q 5247 1438 4531 2309 
L 4909 2547 
Q 5678 1606 6016 728 
z
M 3494 2316 
Q 3028 1181 2222 459 
L 1825 781 
Q 2694 1544 3097 2528 
L 3494 2316 
z
" transform="scale(0.015625)"/>
       <path id="ArialUnicodeMS-540d" d="M 5306 4166 
Q 5306 4113 5057 3789 
Q 4809 3466 4426 3156 
Q 4044 2847 3556 2590 
Q 3069 2334 2478 2144 
L 5269 2144 
L 5269 -428 
L 4781 -428 
L 4781 -72 
L 2381 -72 
L 2381 -428 
L 1894 -428 
L 1894 1966 
Q 1044 1734 775 1697 
L 359 2131 
Q 1944 2425 2875 2822 
Q 2666 3097 2144 3291 
L 2597 3641 
Q 3072 3388 3309 3041 
Q 4119 3422 4678 4116 
L 2772 4116 
Q 2069 3506 1075 3097 
L 569 3481 
Q 2369 4106 3200 5350 
L 3641 5119 
Q 3503 4881 3244 4581 
L 5306 4581 
L 5306 4166 
z
M 4781 397 
L 4781 1678 
L 2381 1678 
L 2381 397 
L 4781 397 
z
" transform="scale(0.015625)"/>
       <path id="ArialUnicodeMS-79f0" d="M 2881 1931 
L 2478 1656 
Q 2219 2241 1931 2553 
L 1931 -378 
L 1466 -378 
L 1466 2272 
Q 1247 1566 659 819 
L 281 1166 
Q 1084 2228 1428 3278 
L 481 3278 
L 481 3719 
L 1472 3719 
L 1472 4441 
Q 1178 4372 563 4250 
L 331 4697 
Q 1628 4822 2528 5344 
L 2759 4991 
Q 2200 4666 1931 4581 
L 1931 3719 
L 2797 3719 
L 2797 3278 
L 1931 3278 
L 1931 2913 
L 2088 3016 
Q 2534 2584 2881 1931 
z
M 5966 3756 
L 3628 3756 
Q 3363 3081 2956 2566 
L 2559 2875 
Q 3197 3575 3609 5300 
L 4038 5141 
Q 3906 4469 3788 4197 
L 5966 4197 
L 5966 3756 
z
M 4622 38 
Q 4622 -144 4509 -261 
Q 4397 -378 4219 -378 
L 3531 -378 
L 3353 128 
Q 3691 63 4056 63 
Q 4166 63 4166 141 
L 4166 3469 
L 4622 3469 
L 4622 38 
z
M 6150 691 
L 5734 403 
Q 5381 1613 4825 2303 
L 5184 2503 
Q 5750 1913 6150 691 
z
M 3859 2278 
Q 3378 1069 2650 397 
L 2259 763 
Q 2941 1288 3456 2484 
L 3859 2278 
z
" transform="scale(0.015625)"/>
      </defs>
      <use xlink:href="#ArialUnicodeMS-6307"/>
      <use xlink:href="#ArialUnicodeMS-6807" transform="translate(100 0)"/>
      <use xlink:href="#ArialUnicodeMS-540d" transform="translate(200 0)"/>
      <use xlink:href="#ArialUnicodeMS-79f0" transform="translate(300 0)"/>
     </g>
    </g>
    <g id="line2d_22">
     <path d="M 860.301542 53.609062 
L 870.301542 53.609062 
L 880.301542 53.609062 
" style="fill: none; stroke: #1f77b4; stroke-width: 1.5; stroke-linecap: square"/>
     <g>
      <use xlink:href="#m2f2c91aa9a" x="870.301542" y="53.609062" style="fill: #1f77b4; stroke: #1f77b4"/>
     </g>
    </g>
    <g id="text_24">
     <!-- 物理内存使用量 -->
     <g transform="translate(888.301542 57.109062) scale(0.1 -0.1)">
      <use xlink:href="#ArialUnicodeMS-7269"/>
      <use xlink:href="#ArialUnicodeMS-7406" transform="translate(100 0)"/>
      <use xlink:href="#ArialUnicodeMS-5185" transform="translate(200 0)"/>
      <use xlink:href="#ArialUnicodeMS-5b58" transform="translate(300 0)"/>
      <use xlink:href="#ArialUnicodeMS-4f7f" transform="translate(400 0)"/>
      <use xlink:href="#ArialUnicodeMS-7528" transform="translate(500 0)"/>
      <use xlink:href="#ArialUnicodeMS-91cf" transform="translate(600 0)"/>
     </g>
    </g>
    <g id="line2d_23">
     <path d="M 860.301542 68.960625 
L 870.301542 68.960625 
L 880.301542 68.960625 
" style="fill: none; stroke: #ff7f0e; stroke-width: 1.5; stroke-linecap: square"/>
     <g>
      <use xlink:href="#m3e18560fb1" x="870.301542" y="68.960625" style="fill: #ff7f0e; stroke: #ff7f0e"/>
     </g>
    </g>
    <g id="text_25">
     <!-- working_set使用量 -->
     <g transform="translate(888.301542 72.460625) scale(0.1 -0.1)">
      <use xlink:href="#ArialUnicodeMS-77"/>
      <use xlink:href="#ArialUnicodeMS-6f" transform="translate(72.216797 0)"/>
      <use xlink:href="#ArialUnicodeMS-72" transform="translate(127.832031 0)"/>
      <use xlink:href="#ArialUnicodeMS-6b" transform="translate(161.132812 0)"/>
      <use xlink:href="#ArialUnicodeMS-69" transform="translate(211.132812 0)"/>
      <use xlink:href="#ArialUnicodeMS-6e" transform="translate(233.349609 0)"/>
      <use xlink:href="#ArialUnicodeMS-67" transform="translate(288.964844 0)"/>
      <use xlink:href="#ArialUnicodeMS-5f" transform="translate(344.580078 0)"/>
      <use xlink:href="#ArialUnicodeMS-73" transform="translate(394.580078 0)"/>
      <use xlink:href="#ArialUnicodeMS-65" transform="translate(444.580078 0)"/>
      <use xlink:href="#ArialUnicodeMS-74" transform="translate(500.195312 0)"/>
      <use xlink:href="#ArialUnicodeMS-4f7f" transform="translate(527.978516 0)"/>
      <use xlink:href="#ArialUnicodeMS-7528" transform="translate(627.978516 0)"/>
      <use xlink:href="#ArialUnicodeMS-91cf" transform="translate(727.978516 0)"/>
     </g>
    </g>
   </g>
  </g>
 </g>
 <defs>
  <clipPath id="p865612011a">
   <rect x="53.48" y="26.80125" width="926.616855" height="483.832459"/>
  </clipPath>
 </defs>
</svg>
